<svg version="1.2" baseProfile="tiny-ps" xmlns="http://www.w3.org/2000/svg" viewBox="0 0 565 289" width="150" height="77">
	<title>Cloud 04-ai</title>
	<defs>
		<linearGradient id="grd1" gradientUnits="userSpaceOnUse"  x1="12.9" y1="1139" x2="520.8" y2="1139">
			<stop offset="0" stop-color="#b0f1ff"  />
			<stop offset="1" stop-color="#cbffff"  />
		</linearGradient>
		<linearGradient id="grd2" gradientUnits="userSpaceOnUse"  x1="6" y1="1338.4" x2="5.1" y2="1305.2">
			<stop offset="0" stop-color="#d1e8ff"  />
			<stop offset="1" stop-color="#ffffff"  />
		</linearGradient>
		<linearGradient id="grd3" gradientUnits="userSpaceOnUse"  x1="147.1" y1="185.9" x2="147.1" y2="185.9">
			<stop offset="0" stop-color="#d1e8ff"  />
			<stop offset="1" stop-color="#ffffff"  />
		</linearGradient>
		<linearGradient id="grd4" gradientUnits="userSpaceOnUse"  x1="13.8" y1="160.1" x2="530.8" y2="160.1">
			<stop offset="0" stop-color="#d1e8ff"  />
			<stop offset="1" stop-color="#ffffff"  />
		</linearGradient>
		<linearGradient id="grd5" gradientUnits="userSpaceOnUse"  x1="-2101.7" y1="-10321.7" x2="-2112.2" y2="-10401.3">
			<stop offset="0" stop-color="#b0f1ff"  />
			<stop offset="1" stop-color="#cbffff"  />
		</linearGradient>
		<linearGradient id="grd6" gradientUnits="userSpaceOnUse"  x1="-472.8" y1="589" x2="-472.8" y2="358.4">
			<stop offset="0" stop-color="#b0f1ff"  />
			<stop offset="1" stop-color="#cbffff"  />
		</linearGradient>
		<linearGradient id="grd7" gradientUnits="userSpaceOnUse"  x1="-297.4" y1="352" x2="-162.3" y2="352">
			<stop offset="0" stop-color="#b0f1ff"  />
			<stop offset="1" stop-color="#cbffff"  />
		</linearGradient>
		<linearGradient id="grd8" gradientUnits="userSpaceOnUse"  x1="-2000.1" y1="-3898.7" x2="-2010" y2="-3931.5">
			<stop offset="0" stop-color="#d1e8ff"  />
			<stop offset="1" stop-color="#ffffff"  />
		</linearGradient>
		<linearGradient id="grd9" gradientUnits="userSpaceOnUse"  x1="-616.4" y1="729" x2="-1.2" y2="729">
			<stop offset="0" stop-color="#b0f1ff"  />
			<stop offset="1" stop-color="#cbffff"  />
		</linearGradient>
		<linearGradient id="grd10" gradientUnits="userSpaceOnUse"  x1="-648.9" y1="958" x2="-587.1" y2="732.1">
			<stop offset="0" stop-color="#d1e8ff"  />
			<stop offset="1" stop-color="#ffffff"  />
		</linearGradient>
		<linearGradient id="grd11" gradientUnits="userSpaceOnUse"  x1="-511.6" y1="999.7" x2="-448.3" y2="768.4">
			<stop offset="0" stop-color="#d1e8ff"  />
			<stop offset="1" stop-color="#ffffff"  />
		</linearGradient>
		<linearGradient id="grd12" gradientUnits="userSpaceOnUse"  x1="-609.2" y1="1608.3" x2="-696.9" y2="906.6">
			<stop offset="0" stop-color="#b0f1ff"  />
			<stop offset="1" stop-color="#cbffff"  />
		</linearGradient>
		<linearGradient id="grd13" gradientUnits="userSpaceOnUse"  x1="-741.3" y1="1363.7" x2="70.2" y2="876.2">
			<stop offset="0" stop-color="#d1e8ff"  />
			<stop offset="1" stop-color="#ffffff"  />
		</linearGradient>
		<linearGradient id="grd14" gradientUnits="userSpaceOnUse"  x1="-13" y1="375.9" x2="396.5" y2="375.9">
			<stop offset="0" stop-color="#b0f1ff"  />
			<stop offset="1" stop-color="#cbffff"  />
		</linearGradient>
		<linearGradient id="grd15" gradientUnits="userSpaceOnUse"  x1="-15.3" y1="625.2" x2="-17.7" y2="482.2">
			<stop offset="0" stop-color="#d1e8ff"  />
			<stop offset="1" stop-color="#ffffff"  />
		</linearGradient>
		<linearGradient id="grd16" gradientUnits="userSpaceOnUse"  x1="-43.4" y1="669.9" x2="519.4" y2="669.9">
			<stop offset="0" stop-color="#b0f1ff"  />
			<stop offset="1" stop-color="#cbffff"  />
		</linearGradient>
		<linearGradient id="grd17" gradientUnits="userSpaceOnUse"  x1="-43.4" y1="749.4" x2="519.4" y2="749.4">
			<stop offset="0" stop-color="#d1e8ff"  />
			<stop offset="1" stop-color="#ffffff"  />
		</linearGradient>
	</defs>
	<style>
		tspan { white-space:pre }
		.s0 { fill: #2575cc } 
		.s1 { fill: #ffffff } 
		.s2 { mix-blend-mode: multiply;fill: #d4dbdd } 
		.s3 { fill: url(#grd1) } 
		.s4 { fill: #f6fbff } 
		.s5 { fill: url(#grd2) } 
		.s6 { fill: #e3edf5 } 
		.s7 { fill: url(#grd3) } 
		.s8 { fill: url(#grd4) } 
		.s9 { fill: url(#grd5) } 
		.s10 { fill: url(#grd6) } 
		.s11 { fill: url(#grd7) } 
		.s12 { mix-blend-mode: multiply;fill: url(#grd8) } 
		.s13 { fill: url(#grd9) } 
		.s14 { fill: url(#grd10) } 
		.s15 { fill: url(#grd11) } 
		.s16 { fill: url(#grd12) } 
		.s17 { mix-blend-mode: multiply;fill: url(#grd13) } 
		.s18 { fill: url(#grd14) } 
		.s19 { mix-blend-mode: multiply;fill: url(#grd15) } 
		.s20 { fill: url(#grd16) } 
		.s21 { mix-blend-mode: multiply;fill: url(#grd17) } 
	</style>
	<g id="Layer 1">
		<path id="&lt;Path&gt;" class="s0" d="" />
		<g id="&lt;Group&gt;">
			<g id="&lt;Group&gt;">
				<path id="&lt;Compound Path&gt;" fill-rule="evenodd" class="s1" d="m-274.05 1381.67h4.37c3.43 0 6.26 0.9 8.49 2.68c2.24 1.79 3.36 4.33 3.36 7.65c0 3.42-1.11 6.03-3.33 7.84c-2.23 1.81-5.09 2.72-8.6 2.72h-4.29v-20.89zm2.63 18.52h0.93c1.36 0 2.65-0.14 3.87-0.4c1.21-0.28 2.27-0.72 3.18-1.36c0.9-0.65 1.63-1.48 2.17-2.49c0.54-1.03 0.81-2.3 0.81-3.8c0-1.5-0.27-2.79-0.8-3.84c-0.53-1.06-1.27-1.89-2.23-2.48c-0.94-0.6-2-1.05-3.15-1.33c-1.15-0.28-2.43-0.42-3.85-0.42h-0.93v16.14z" />
				<path id="&lt;Compound Path&gt;" fill-rule="evenodd" class="s1" d="m-253.96 1396.51c0.04 1.15 0.41 2.16 1.12 3.01c0.73 0.86 1.68 1.27 2.83 1.27c0.91 0 1.66-0.21 2.25-0.62c0.59-0.42 1.15-1.06 1.67-1.9l2.13 1.19c-0.62 1.11-1.46 1.96-2.54 2.62c-1.08 0.62-2.25 0.93-3.54 0.93c-1.97 0-3.53-0.64-4.71-1.94c-1.16-1.32-1.75-2.94-1.75-4.88c0-2.03 0.56-3.72 1.66-5.03c1.08-1.3 2.66-1.94 4.74-1.94c2.02 0 3.53 0.64 4.57 1.94c1.04 1.29 1.56 2.95 1.56 4.96v0.39h-10zm7.47-1.88c-0.16-1-0.53-1.8-1.16-2.37c-0.63-0.59-1.44-0.88-2.45-0.88c-0.48 0-0.94 0.07-1.36 0.23c-0.42 0.17-0.79 0.4-1.12 0.69c-0.32 0.3-0.59 0.64-0.82 1.04c-0.21 0.4-0.35 0.83-0.42 1.29h7.33z" />
				<path id="&lt;Compound Path&gt;" class="s1" d="m-236.54 1392.57c-0.37-0.77-0.93-1.15-1.68-1.15c-0.35 0-0.67 0.14-0.95 0.38c-0.28 0.25-0.42 0.56-0.42 0.89c0 0.34 0.11 0.64 0.32 0.86c0.21 0.23 0.51 0.43 0.89 0.64c0.24 0.12 0.43 0.21 0.56 0.25c0.13 0.09 0.34 0.18 0.65 0.32c0.15 0.05 0.28 0.13 0.39 0.16c0.1 0.03 0.19 0.06 0.25 0.11c0.93 0.42 1.68 0.91 2.22 1.47c0.54 0.54 0.81 1.29 0.81 2.21c0 1.22-0.46 2.25-1.35 3.07c-0.87 0.82-1.93 1.23-3.16 1.23c-0.51 0-0.99-0.07-1.46-0.21c-0.46-0.13-0.9-0.33-1.3-0.57c-0.4-0.26-0.76-0.56-1.07-0.91c-0.3-0.37-0.55-0.77-0.71-1.21l2.16-0.96c0.62 1.11 1.42 1.65 2.39 1.65c0.4 0 0.76-0.1 1.08-0.31c0.34-0.22 0.59-0.47 0.75-0.8c0.15-0.34 0.19-0.68 0.1-1.07c-0.09-0.37-0.38-0.73-0.87-1.06l-2.47-1.3c-0.43-0.22-0.8-0.44-1.12-0.67c-0.31-0.23-0.58-0.46-0.78-0.7c-0.21-0.25-0.36-0.53-0.47-0.83c-0.1-0.31-0.15-0.67-0.15-1.08c0-1.04 0.37-1.94 1.13-2.67c0.75-0.72 1.66-1.09 2.74-1.09c1.64 0 2.84 0.75 3.58 2.27l-2.04 1.08z" />
				<path id="&lt;Compound Path&gt;" class="s1" d="m-227.5 1383.67c0 0.47-0.17 0.87-0.5 1.19c-0.33 0.35-0.75 0.5-1.23 0.5c-0.49 0-0.89-0.16-1.24-0.5c-0.33-0.32-0.5-0.72-0.5-1.19c0-0.47 0.17-0.88 0.5-1.23c0.34-0.34 0.75-0.5 1.24-0.5c0.48 0 0.9 0.16 1.23 0.5c0.34 0.35 0.5 0.76 0.5 1.23zm-0.48 18.9h-2.52v-12.96h2.52v12.96z" />
				<path id="&lt;Compound Path&gt;" fill-rule="evenodd" class="s1" d="m-211.66 1402.32c0 2.43-0.47 4.33-1.4 5.69c-0.94 1.32-2.6 1.98-4.99 1.98c-1.85 0-3.36-0.53-4.54-1.58c-1.16-1.05-1.76-2.48-1.79-4.29h2.51c0 1.16 0.37 2.06 1.08 2.7c0.73 0.62 1.67 0.95 2.85 0.95c1.44 0 2.43-0.41 2.96-1.25c0.53-0.84 0.79-2 0.79-3.51v-2.48h-0.06c-0.52 0.8-1.17 1.39-1.94 1.82c-0.77 0.44-1.61 0.65-2.5 0.65c-1.94 0-3.48-0.68-4.6-2.03c-1.12-1.35-1.67-3-1.67-4.98c0-1.88 0.56-3.45 1.7-4.76c1.14-1.35 2.63-2.03 4.46-2.03c1.92 0 3.45 0.87 4.55 2.59h0.06v-2.2h2.53v12.72zm-6.63-1.53c1.32 0 2.36-0.45 3.1-1.35c0.76-0.93 1.15-2.05 1.15-3.36c0-1.3-0.39-2.39-1.15-3.3c-0.75-0.89-1.79-1.37-3.1-1.37c-1.26 0-2.26 0.47-3.03 1.4c-0.75 0.89-1.12 1.99-1.12 3.26c0 1.31 0.38 2.41 1.12 3.32c0.77 0.93 1.78 1.38 3.03 1.38z" />
				<path id="&lt;Compound Path&gt;" class="s1" d="m-205.87 1391.34h0.05c0.37-0.69 0.91-1.21 1.62-1.58c0.71-0.38 1.48-0.55 2.33-0.55c0.86 0 1.58 0.13 2.19 0.39c0.59 0.25 1.08 0.62 1.44 1.11c0.37 0.48 0.63 1.07 0.78 1.76c0.16 0.69 0.24 1.49 0.24 2.37v7.73h-2.52v-7.43c0-1.28-0.19-2.21-0.56-2.8c-0.38-0.6-1.15-0.92-2.32-0.92c-0.43 0-0.8 0.05-1.09 0.14c-0.31 0.08-0.56 0.19-0.79 0.35c-0.22 0.16-0.41 0.34-0.55 0.54c-0.15 0.2-0.29 0.42-0.42 0.67c-0.05 0.11-0.11 0.29-0.16 0.49c-0.04 0.2-0.08 0.41-0.12 0.61c-0.04 0.21-0.08 0.43-0.09 0.65c-0.02 0.21-0.03 0.38-0.03 0.5v1.21v5.97h-2.52v-12.96h2.52v1.74z" />
				<path id="&lt;Compound Path&gt;" fill-rule="evenodd" class="s1" d="m-185.84 1378.52h2.52v13.23h0.06c1.16-1.69 2.68-2.53 4.57-2.53c1.82 0 3.31 0.68 4.45 2.03c1.14 1.31 1.71 2.88 1.71 4.76c0 1.98-0.57 3.63-1.68 4.98c-1.13 1.35-2.66 2.03-4.59 2.03c-0.9 0-1.74-0.21-2.51-0.65c-0.77-0.43-1.42-1.03-1.94-1.82h-0.06v2.03h-2.52v-24.05zm6.53 22.28c1.32 0 2.36-0.45 3.1-1.35c0.76-0.93 1.15-2.05 1.15-3.36c0-1.3-0.39-2.39-1.15-3.3c-0.75-0.89-1.78-1.37-3.1-1.37c-1.25 0-2.27 0.47-3.03 1.4c-0.74 0.89-1.12 1.99-1.12 3.26c0 1.31 0.38 2.41 1.12 3.32c0.76 0.93 1.78 1.38 3.03 1.38z" />
				<path id="&lt;Compound Path&gt;" class="s1" d="m-172.18 1389.61h2.94l4.43 8.22l4.11-8.22h2.83l-10.63 20.39h-2.86l5.16-9.65l-6-10.75z" />
				<path id="&lt;Compound Path&gt;" fill-rule="evenodd" class="s1" d="m-145.15 1397.32l-2.41 5.25h-2.83l10.08-21.78l10.09 21.78h-2.83l-2.42-5.25h-9.69zm4.85-10.82l-3.76 8.46h7.5l-3.75-8.46z" />
				<path id="&lt;Compound Path&gt;" class="s1" d="m-126.1 1402.57h-2.52v-24.05h2.52v24.05z" />
				<path id="&lt;Compound Path&gt;" class="s1" d="m-119.89 1402.57h-2.51v-24.05h2.51v24.05z" />
				<path id="&lt;Compound Path&gt;" class="s1" d="m-110.31 1392.65v2.07h-6.12v-2.07h6.12z" />
				<path id="&lt;Compound Path&gt;" class="s1" d="m-100.5 1381.04c-0.79-0.36-1.35-0.51-1.68-0.51c-0.54 0-0.94 0.15-1.17 0.51c-0.25 0.33-0.41 0.76-0.5 1.25c-0.05 0.37-0.09 0.66-0.1 0.88c0 0.2-0.01 0.5-0.01 0.87v5.57h3.47v2.33h-3.47v10.63h-2.52v-10.63h-1.15v-2.33h1.15v-6.32c0-3.41 1.4-5.1 4.23-5.1c0.62 0 1.2 0.11 1.76 0.33v2.52z" />
				<path id="&lt;Compound Path&gt;" class="s1" d="m-96.61 1391.71h0.07c0.33-0.78 0.79-1.4 1.41-1.83c0.62-0.46 1.34-0.66 2.18-0.66c0.69 0 1.38 0.21 2.07 0.64l-1.15 2.28c-0.4-0.36-0.92-0.53-1.54-0.53c-1.28 0-2.15 0.52-2.58 1.54c-0.18 0.49-0.31 0.98-0.39 1.44c-0.06 0.46-0.09 1-0.09 1.61v6.38h-2.52v-12.96h2.52v2.11z" />
				<path id="&lt;Compound Path&gt;" fill-rule="evenodd" class="s1" d="m-87.96 1396.51c0.04 1.15 0.4 2.16 1.12 3.01c0.73 0.86 1.66 1.27 2.83 1.27c0.92 0 1.67-0.21 2.26-0.62c0.59-0.42 1.14-1.06 1.66-1.9l2.13 1.19c-0.62 1.11-1.46 1.96-2.54 2.62c-1.07 0.62-2.25 0.93-3.54 0.93c-1.95 0-3.53-0.64-4.71-1.94c-1.15-1.32-1.73-2.94-1.73-4.88c0-2.03 0.54-3.72 1.66-5.03c1.08-1.3 2.65-1.94 4.72-1.94c2.02 0 3.55 0.64 4.58 1.94c1.04 1.29 1.56 2.95 1.56 4.96v0.39h-10zm7.48-1.88c-0.15-1-0.54-1.8-1.17-2.37c-0.62-0.59-1.44-0.88-2.45-0.88c-0.48 0-0.94 0.07-1.35 0.23c-0.42 0.17-0.8 0.4-1.12 0.69c-0.33 0.3-0.6 0.64-0.81 1.04c-0.21 0.4-0.36 0.83-0.43 1.29h7.34z" />
				<path id="&lt;Compound Path&gt;" fill-rule="evenodd" class="s1" d="m-74.29 1396.51c0.04 1.15 0.42 2.16 1.13 3.01c0.72 0.86 1.66 1.27 2.82 1.27c0.92 0 1.66-0.21 2.26-0.62c0.59-0.42 1.15-1.06 1.67-1.9l2.12 1.19c-0.6 1.11-1.45 1.96-2.52 2.62c-1.08 0.62-2.26 0.93-3.55 0.93c-1.95 0-3.52-0.64-4.7-1.94c-1.16-1.32-1.73-2.94-1.73-4.88c0-2.03 0.54-3.72 1.65-5.03c1.09-1.3 2.66-1.94 4.74-1.94c2.01 0 3.53 0.64 4.55 1.94c1.05 1.29 1.56 2.95 1.56 4.96v0.39h-9.99zm7.49-1.88c-0.15-1-0.55-1.8-1.17-2.37c-0.63-0.59-1.45-0.88-2.44-0.88c-0.49 0-0.95 0.07-1.37 0.23c-0.42 0.17-0.81 0.4-1.12 0.69c-0.33 0.3-0.61 0.64-0.81 1.04c-0.22 0.4-0.36 0.83-0.43 1.29h7.34z" />
				<path id="&lt;Compound Path&gt;" class="s1" d="m-56.14 1392.65v2.07h-6.12v-2.07h6.12z" />
				<path id="&lt;Compound Path&gt;" fill-rule="evenodd" class="s1" d="m-43.05 1400.54h-0.05c-0.53 0.8-1.18 1.39-1.96 1.82c-0.77 0.44-1.62 0.65-2.5 0.65c-1.95 0-3.48-0.68-4.6-2.03c-1.13-1.35-1.69-3-1.69-4.98c0-1.88 0.57-3.45 1.71-4.76c1.15-1.35 2.62-2.03 4.46-2.03c1.88 0 3.4 0.84 4.57 2.53h0.05v-13.23h2.51v24.05h-2.51v-2.03zm-4.12 0.26c1.33 0 2.37-0.45 3.11-1.35c0.76-0.93 1.15-2.05 1.15-3.36c0-1.3-0.39-2.39-1.15-3.3c-0.74-0.89-1.78-1.37-3.11-1.37c-1.24 0-2.26 0.47-3.02 1.4c-0.75 0.89-1.13 1.99-1.13 3.26c0 1.31 0.38 2.41 1.13 3.32c0.76 0.93 1.78 1.38 3.02 1.38z" />
				<path id="&lt;Compound Path&gt;" fill-rule="evenodd" class="s1" d="m-36.42 1391.2c1.36-1.32 3.03-1.98 4.98-1.98c1.96 0 3.63 0.66 4.95 1.98c1.36 1.33 2.05 2.97 2.05 4.92c0 1.94-0.69 3.57-2.05 4.91c-1.33 1.32-3 1.99-4.95 1.99c-1.96 0-3.63-0.66-4.98-1.99c-1.34-1.34-2.01-2.97-2.01-4.91c0-1.95 0.66-3.58 2.01-4.92zm0.5 4.92c0 1.2 0.46 2.27 1.33 3.18c0.85 0.89 1.91 1.33 3.16 1.33c1.22 0 2.29-0.43 3.17-1.33c0.89-0.92 1.33-1.98 1.33-3.18c0-1.23-0.44-2.28-1.33-3.19c-0.88-0.89-1.95-1.33-3.17-1.33c-1.24 0-2.3 0.44-3.16 1.33c-0.87 0.91-1.33 1.96-1.33 3.19z" />
				<path id="&lt;Compound Path&gt;" class="s1" d="m-17.65 1397.86l3.86-8.98l3.84 8.98l3.8-8.25h2.86l-6.67 13.41l-3.84-8.67l-3.86 8.67l-6.66-13.41h2.85l3.81 8.25z" />
				<path id="&lt;Compound Path&gt;" class="s1" d="m0.49 1391.34h0.06c0.37-0.69 0.91-1.21 1.63-1.58c0.7-0.38 1.48-0.55 2.32-0.55c0.86 0 1.59 0.13 2.18 0.39c0.59 0.25 1.08 0.62 1.43 1.11c0.38 0.48 0.64 1.07 0.79 1.76c0.16 0.69 0.24 1.49 0.24 2.37v7.73h-2.51v-7.43c0-1.28-0.18-2.21-0.56-2.8c-0.38-0.6-1.16-0.92-2.33-0.92c-0.44 0-0.8 0.05-1.1 0.14c-0.29 0.08-0.55 0.19-0.78 0.35c-0.22 0.16-0.41 0.34-0.57 0.54c-0.15 0.2-0.28 0.42-0.42 0.67c-0.04 0.11-0.11 0.29-0.15 0.49c-0.05 0.2-0.08 0.41-0.13 0.61c-0.03 0.21-0.05 0.43-0.08 0.65c-0.01 0.21-0.03 0.38-0.03 0.5v1.21v5.97h-2.52v-12.96h2.52v1.74z" />
				<path id="&lt;Compound Path&gt;" class="s1" d="m15.26 1402.57h-2.52v-24.05h2.52v24.05z" />
				<path id="&lt;Compound Path&gt;" fill-rule="evenodd" class="s1" d="m19.68 1391.2c1.38-1.32 3.04-1.98 5-1.98c1.95 0 3.62 0.66 4.96 1.98c1.35 1.33 2.04 2.97 2.04 4.92c0 1.94-0.68 3.57-2.04 4.91c-1.34 1.32-3.01 1.99-4.96 1.99c-1.96 0-3.62-0.66-5-1.99c-1.34-1.34-2.01-2.97-2.01-4.91c0-1.95 0.67-3.58 2.01-4.92zm0.52 4.92c0 1.2 0.44 2.27 1.31 3.18c0.86 0.89 1.91 1.33 3.17 1.33c1.24 0 2.28-0.43 3.15-1.33c0.88-0.92 1.34-1.98 1.34-3.18c0-1.23-0.46-2.28-1.34-3.19c-0.87-0.89-1.91-1.33-3.15-1.33c-1.26 0-2.31 0.44-3.17 1.33c-0.88 0.91-1.31 1.96-1.31 3.19z" />
				<path id="&lt;Compound Path&gt;" fill-rule="evenodd" class="s1" d="m46.27 1402.57h-2.52v-2.03h-0.06c-1.11 1.65-2.6 2.48-4.45 2.48c-1.92 0-3.46-0.68-4.6-2.03c-1.12-1.35-1.66-3-1.66-4.98c0-1.88 0.57-3.45 1.71-4.76c1.13-1.35 2.63-2.03 4.47-2.03c1.87 0 3.39 0.84 4.54 2.53h0.06v-2.14h2.52v12.96zm-6.64-1.77c1.32 0 2.36-0.45 3.12-1.35c0.76-0.93 1.14-2.05 1.14-3.36c0-1.3-0.38-2.39-1.14-3.3c-0.76-0.89-1.8-1.37-3.12-1.37c-1.24 0-2.26 0.47-3.03 1.4c-0.74 0.89-1.12 1.99-1.12 3.26c0 1.31 0.38 2.41 1.12 3.32c0.76 0.93 1.79 1.38 3.03 1.38z" />
				<path id="&lt;Compound Path&gt;" fill-rule="evenodd" class="s1" d="m59.32 1400.54h-0.06c-0.53 0.8-1.17 1.39-1.95 1.82c-0.77 0.44-1.6 0.65-2.5 0.65c-1.95 0-3.47-0.68-4.6-2.03c-1.12-1.35-1.67-3-1.67-4.98c0-1.88 0.56-3.45 1.71-4.76c1.14-1.35 2.61-2.03 4.44-2.03c1.89 0 3.4 0.84 4.57 2.53h0.06v-13.23h2.52v24.05h-2.52v-2.03zm-4.12 0.26c1.33 0 2.36-0.45 3.11-1.35c0.77-0.93 1.15-2.05 1.15-3.36c0-1.3-0.38-2.39-1.15-3.3c-0.75-0.89-1.78-1.37-3.11-1.37c-1.25 0-2.25 0.47-3.04 1.4c-0.74 0.89-1.11 1.99-1.11 3.26c0 1.31 0.37 2.41 1.11 3.32c0.78 0.93 1.79 1.38 3.04 1.38z" />
				<path id="&lt;Compound Path&gt;" class="s1" d="m69.06 1401.41c0 0.44-0.14 0.83-0.47 1.13c-0.33 0.31-0.7 0.47-1.16 0.47c-0.44 0-0.83-0.16-1.15-0.47c-0.31-0.31-0.48-0.7-0.48-1.13c0-0.43 0.17-0.81 0.48-1.14c0.32-0.3 0.71-0.47 1.15-0.47c0.46 0 0.83 0.17 1.16 0.47c0.33 0.33 0.47 0.71 0.47 1.14z" />
				<path id="&lt;Compound Path&gt;" class="s1" d="m82.84 1393.29c-1.04-1.16-2.31-1.75-3.76-1.75c-1.21 0-2.24 0.46-3.1 1.37c-0.85 0.91-1.26 1.98-1.26 3.18c0 1.36 0.41 2.44 1.26 3.29c0.88 0.88 1.96 1.32 3.26 1.32c1.35 0 2.55-0.59 3.59-1.73v3.19c-1.08 0.58-2.28 0.86-3.61 0.86c-1.94 0-3.6-0.65-4.99-1.97c-1.35-1.29-2.04-2.9-2.04-4.85c0-1.99 0.68-3.65 2.04-4.99c1.37-1.32 3.07-1.98 5.13-1.98c1.35 0 2.51 0.28 3.47 0.86v3.22z" />
				<path id="&lt;Compound Path&gt;" fill-rule="evenodd" class="s1" d="m86.4 1391.2c1.37-1.32 3.04-1.98 4.99-1.98c1.96 0 3.61 0.66 4.96 1.98c1.35 1.33 2.04 2.97 2.04 4.92c0 1.94-0.68 3.57-2.04 4.91c-1.35 1.32-3 1.99-4.96 1.99c-1.96 0-3.63-0.66-4.99-1.99c-1.34-1.34-2.01-2.97-2.01-4.91c0-1.95 0.67-3.58 2.01-4.92zm0.51 4.92c0 1.2 0.42 2.27 1.31 3.18c0.86 0.89 1.92 1.33 3.17 1.33c1.23 0 2.28-0.43 3.16-1.33c0.88-0.92 1.31-1.98 1.31-3.18c0-1.23-0.43-2.28-1.31-3.19c-0.88-0.89-1.93-1.33-3.16-1.33c-1.25 0-2.31 0.44-3.17 1.33c-0.89 0.91-1.31 1.96-1.31 3.19z" />
				<path id="&lt;Compound Path&gt;" class="s1" d="m103.12 1391.24h0.07c0.36-0.6 0.86-1.08 1.48-1.47c0.62-0.37 1.29-0.55 1.98-0.55c1.64 0 2.89 0.77 3.78 2.29c0.41-0.7 0.99-1.26 1.7-1.67c0.71-0.42 1.51-0.62 2.34-0.62c2.9 0 4.34 1.86 4.34 5.6v7.75h-2.52v-7.34c0-0.34-0.02-0.67-0.04-0.99c-0.03-0.32-0.07-0.63-0.15-0.94c-0.08-0.29-0.19-0.57-0.35-0.84c-0.14-0.26-0.35-0.49-0.6-0.7c-0.34-0.21-0.77-0.33-1.29-0.33c-0.53 0-0.97 0.12-1.34 0.33c-0.35 0.22-0.64 0.48-0.83 0.77c-0.21 0.3-0.36 0.7-0.47 1.16c-0.1 0.45-0.18 0.88-0.21 1.25c-0.02 0.36-0.04 0.79-0.04 1.26v6.38h-2.53v-6.87c0-0.44 0-0.81-0.02-1.1c-0.02-0.31-0.07-0.67-0.16-1.13c-0.1-0.47-0.21-0.82-0.36-1.05c-0.16-0.26-0.38-0.49-0.7-0.68c-0.33-0.21-0.7-0.32-1.15-0.32c-1.29 0-2.12 0.56-2.49 1.67c-0.17 0.52-0.28 1.01-0.34 1.46c-0.05 0.46-0.08 1.02-0.08 1.63v6.38h-2.52v-12.96h2.52v1.64z" />
			</g>
			<g id="&lt;Group&gt;">
				<g id="&lt;Group&gt;">
					<path id="&lt;Path&gt;" class="s1" d="m-332.8 1393.27c11.89 0 23.78 0 35.67 0c1.08 0 1.08 1.66 0 1.66c-11.89 0-23.79 0-35.67 0c-1.08 0-1.08-1.66 0-1.66z" />
				</g>
				<g id="&lt;Group&gt;">
					<path id="&lt;Path&gt;" class="s1" d="m141.89 1393.27c11.89 0 23.79 0 35.66 0c1.1 0 1.1 1.66 0 1.66c-11.88 0-23.78 0-35.66 0c-1.07 0-1.07-1.66 0-1.66z" />
				</g>
			</g>
		</g>
		<path id="&lt;Path&gt;" class="s2" d="m556.92 1348.93c4.5 3.92 3.98 12.01 0.77 17.04c-3.21 5.03-8.73 8.09-14.24 10.37c-31.7 13.14-67.7 6.82-101.39 0.3c-33.02 23.06-80.52 22.47-115.71 2.87c-33.61 15.66-73.32 11.78-103.39-9.91c-28.92 9.52-63 17.47-93.22 13.75c-30.22-3.71-60.12-18.83-76.15-44.72c-6.12-9.89 1.83-26.24 10.74-33.72c8.91-7.47 21.04-10.47 32.65-9.68c1.31 0.09 2.64 0.21 3.97 0.35c0.52 0.06 1.05 0.13 1.58 0.19c0.54 0.07 1.09 0.12 1.63 0.2c-0.01 0.01-0.01 0.01-0.02 0.02c9.5 1.3 19.24 3.94 27.29 8.55c-2.18-4.97-1.55-11.06 1.6-15.49c3.14-4.42 9.2-7.91 14.61-7.48c-13.66-12.77-13.84-36.18-2.66-51.18c6.55-8.78 16.15-14.7 26.71-17.75c0.08-0.02 0.16-0.04 0.24-0.07c1.37-0.39 2.76-0.73 4.16-1.02c0.11-0.02 0.22-0.05 0.33-0.07c2.88-0.58 5.79-0.96 8.72-1.13c0.35-0.02 0.69-0.03 1.04-0.05c1.09-0.05 2.19-0.06 3.28-0.05c0.39 0 0.77 0 1.16 0.02c1.4 0.04 2.81 0.12 4.2 0.25c18.61 1.83 38.83 12.28 53.19 24.26c-10.53-16.38-14.62-42.87-1.02-58.76c0.58-0.68 1.19-1.32 1.82-1.95c0.01-0.01 0.01-0.01 0.02-0.02c0.18-0.18 0.36-0.37 0.55-0.55c0 0 0 0 0 0c0.13-0.12 0.26-0.23 0.39-0.35c1.02-0.95 2.08-1.84 3.19-2.67c0.06-0.04 0.11-0.09 0.17-0.13c0.69-0.51 1.39-1 2.11-1.46c0.08-0.05 0.15-0.1 0.23-0.15c0.72-0.46 1.45-0.91 2.2-1.33c0.07-0.04 0.13-0.07 0.2-0.11c0.77-0.43 1.55-0.85 2.36-1.24c0.01 0 0.01-0.01 0.02-0.01c4.12-2.02 8.56-3.5 13.09-4.58c0.11-0.03 0.22-0.05 0.34-0.08c0.73-0.17 1.46-0.32 2.18-0.47c0.27-0.05 0.54-0.11 0.82-0.17c0.64-0.13 1.29-0.24 1.94-0.35c0.36-0.06 0.72-0.12 1.08-0.18c0.59-0.09 1.18-0.18 1.76-0.26c0.43-0.06 0.85-0.11 1.28-0.17c0.53-0.07 1.06-0.13 1.6-0.19c0.5-0.05 1-0.1 1.49-0.15c0.46-0.05 0.92-0.09 1.38-0.13c0.61-0.05 1.21-0.09 1.81-0.13c0.35-0.02 0.71-0.05 1.05-0.07c0.95-0.06 1.9-0.1 2.83-0.14c1.73-0.06 3.46-0.06 5.19-0.04c0.48 0.01 0.95 0.03 1.43 0.04c1.35 0.04 2.7 0.11 4.05 0.21c0.42 0.03 0.84 0.05 1.25 0.09c3.53 0.3 7.05 0.8 10.54 1.48c0.33 0.06 0.65 0.13 0.98 0.2c1.57 0.32 3.13 0.68 4.68 1.08c0.18 0.05 0.36 0.09 0.54 0.13c3.56 0.94 7.06 2.08 10.49 3.41c0.2 0.08 0.4 0.16 0.6 0.23c1.66 0.66 3.3 1.36 4.91 2.11c0.02 0.01 0.04 0.02 0.06 0.02c0 0 0 0 0 0c0 0 0.01 0.01 0.02 0.01c3.19 1.48 6.29 3.14 9.28 4.98c0.01 0.01 0.02 0.01 0.04 0.02c0.3 0.19 0.6 0.38 0.9 0.57c0.02 0.01 0.03 0.02 0.05 0.03c1.02 0.65 2.04 1.31 3.03 2c0.02 0.01 0.04 0.02 0.05 0.03c0.45 0.32 0.91 0.62 1.36 0.95c0.02 0.01 0.03 0.03 0.05 0.04c1.36 0.97 2.69 1.97 3.99 3.03c9.41 7.63 17.46 17.31 21.45 28.75c0.23 0.65 0.43 1.31 0.63 1.97v0c0.27 0.91 0.51 1.82 0.72 2.75c0 0.01 0 0.02 0.01 0.02c0.07 0.31 0.14 0.63 0.2 0.95c0.08 0.36 0.16 0.73 0.22 1.09c0 0.01 0 0.03 0.01 0.04c0.1 0.54 0.18 1.07 0.26 1.62c0 0.01 0 0.02 0 0.02c0.05 0.34 0.09 0.68 0.13 1.01c0 0 0 0 0 0c0.05 0.44 0.11 0.87 0.15 1.31c0 0.02 0 0.05 0.01 0.07c0.02 0.25 0.04 0.51 0.06 0.76c0.01 0.07 0.01 0.14 0.02 0.21c0.02 0.32 0.04 0.65 0.06 0.97c0 0.04 0 0.08 0 0.12c0.02 0.34 0.03 0.67 0.04 1.01c0 0.01 0 0.01 0 0.02c0.01 0.27 0.01 0.54 0.01 0.82c0 0.02 0 0.04 0 0.05c0 0.4 0 0.8-0.01 1.2c0 0 0 0.01 0 0.01c0 0.11-0.01 0.22-0.01 0.34c0 0.02 0 0.04 0 0.06c-0.04 1.01-0.11 2.01-0.21 3.01c0 0.01 0 0.02 0 0.03c-0.01 0.07-0.02 0.14-0.02 0.2c-0.05 0.48-0.12 0.95-0.19 1.43c-0.01 0.04-0.01 0.07-0.02 0.1c-0.02 0.15-0.04 0.3-0.07 0.45c0 0.01 0 0.03-0.01 0.04c-0.08 0.5-0.17 1-0.28 1.5c0 0.01 0 0.01 0 0.02c0 0 0 0 0 0.01c-0.36 1.77-0.84 3.51-1.45 5.2v0v0c0 0.01-0.01 0.01-0.01 0.02c-0.39 1.08-0.83 2.14-1.33 3.18c-0.06 0.13-0.13 0.27-0.2 0.4c-0.5 1.02-1.04 2.02-1.64 2.99c7.16-1.9 12.99-2.84 20.05-0.62c7.06 2.22 12.8 10.32 9.73 17.06c4.43-6.56 16.49-10.86 24.3-9.6c7.81 1.26 14.64 7.35 16.78 14.97c1.34-0.38 2.7-0.73 4.05-1.05c0.44-0.11 0.89-0.2 1.33-0.3c0.94-0.21 1.88-0.41 2.81-0.59c0.48-0.09 0.95-0.18 1.43-0.26c0.97-0.17 1.94-0.32 2.91-0.46c0.4-0.06 0.8-0.12 1.21-0.17c1.27-0.16 2.54-0.3 3.81-0.41c0.09-0.01 0.18-0.02 0.27-0.03c2.91-0.23 5.82-0.31 8.72-0.23c0.13 0 0.25 0.01 0.38 0.01c1.33 0.04 2.66 0.12 3.98 0.23c0.13 0.01 0.26 0.02 0.39 0.03c8.94 0.8 17.68 3.19 25.9 7.49c17.73 9.28 30.36 29.59 26.73 49.27c4.01-0.54 8.55-0.92 12.91-0.65c0 0 0 0 0 0c0.01 0 0.01 0 0.02 0c0.21 0.01 0.41 0.04 0.62 0.05c0.58 0.05 1.16 0.1 1.74 0.17c0.28 0.03 0.55 0.08 0.83 0.12c0.53 0.08 1.05 0.17 1.56 0.28c0.25 0.05 0.49 0.1 0.73 0.15c0.74 0.17 1.46 0.36 2.17 0.6c6.21 2.07 11.84 6.72 13.7 12.99c1.86 6.27-0.97 13.99-7.04 16.47z" />
		<g id="&lt;Group&gt;">
			<path id="&lt;Path&gt;" class="s2" d="m-209.72 364.5c2.2-0.59 5.9 0.41 7.88 1.33c1.81 0.84 3.74 1.67 4.93 3.33c0.8 1.11 1.91 2.51 1.52 3.98c-0.35 1.34-1.87 2.48-3.19 2.68c-1.54 0.23-3.31-0.44-4.77-0.7c-2.02-0.35-3.99-1.79-5.97-2l3.31-0.66c-1.58-1.24-9.54-6.4-3.7-7.96z" />
			<path id="&lt;Path&gt;" class="s2" d="m-108.89 391.96c-8.73 4.47-22.41-4.82-30.55-20.74c-8.14-15.92-7.66-32.44 1.07-36.91c8.73-4.46 22.41 4.82 30.55 20.74c8.14 15.92 7.66 32.45-1.07 36.91z" />
			<path id="&lt;Path&gt;" class="s2" d="m-129.64 418.57c2.58 5.04 2.42 10.27-0.34 11.68c-2.76 1.41-7.09-1.53-9.67-6.56c-2.58-5.04-2.42-10.27 0.34-11.68c2.76-1.41 7.09 1.53 9.67 6.56z" />
			<path id="&lt;Path&gt;" class="s2" d="m-275.3 356.93c-0.99-2.94 2.56-6.79 7.92-8.59c5.36-1.8 10.51-0.88 11.5 2.06c0.99 2.94-2.56 6.79-7.92 8.59c-5.36 1.8-10.51 0.88-11.5-2.06z" />
			<path id="&lt;Path&gt;" class="s2" d="m-131.59 615.45c0.06 0.04 0.11 0.07 0.15 0.1c-0.19 0-0.45 0-0.79 0.01c-0.34 0-0.8 0.01-1.37 0.01c-0.43 0.01-0.93 0.01-1.49 0.02c-2.44 0.03-6.06 0.06-10.72 0.11c-0.06 0-0.12 0-0.18 0c-1.81 0.02-3.78 0.04-5.89 0.05c-0.03 0-0.05 0-0.08 0c-0.64 0.01-1.29 0.01-1.95 0.02c-0.08 0-0.15 0-0.22 0c-8.18 0.07-18.31 0.16-29.93 0.25c-0.25 0-0.5 0-0.76 0.01c-4.18 0.03-8.55 0.07-13.09 0.1c-0.03 0-0.07 0-0.1 0c-104.02 0.77-296.75 1.58-330.49-2.5c0 0 0 0 0 0c-0.38-0.05-0.73-0.09-1.07-0.14c0 0 0 0-0.01 0c-0.33-0.05-0.64-0.09-0.93-0.14c-0.01 0-0.02 0-0.02 0c-0.29-0.05-0.55-0.09-0.8-0.14c-0.01 0-0.02 0-0.03 0c-0.24-0.05-0.46-0.1-0.67-0.14c-0.01 0-0.03-0.01-0.04-0.01c-0.2-0.05-0.38-0.1-0.54-0.15c-0.01 0-0.02 0-0.02-0.01c0 0-0.01 0-0.01 0c-0.11-0.03-0.2-0.07-0.29-0.1c-0.09-0.03-0.2-0.06-0.28-0.1c-0.01-0.01-0.03-0.01-0.04-0.02c-0.01 0-0.03-0.01-0.04-0.01c-0.03-0.01-0.04-0.01-0.08-0.02c-0.07-0.01-0.14-0.03-0.26-0.06c-0.06-0.01-0.13-0.03-0.2-0.05c-0.12-0.03-0.25-0.06-0.4-0.09c-0.08-0.02-0.17-0.04-0.26-0.06c-0.17-0.04-0.35-0.08-0.55-0.13c-0.12-0.03-0.25-0.06-0.38-0.09c-0.2-0.05-0.4-0.1-0.62-0.15c-0.17-0.04-0.34-0.08-0.52-0.13c-0.23-0.06-0.46-0.12-0.71-0.18c-0.19-0.05-0.38-0.1-0.59-0.15c-0.27-0.07-0.54-0.14-0.83-0.22c-0.21-0.06-0.43-0.11-0.66-0.17c-0.3-0.08-0.61-0.16-0.92-0.25c-0.24-0.07-0.49-0.13-0.74-0.2c-0.32-0.09-0.65-0.18-0.98-0.28c-0.28-0.08-0.55-0.16-0.84-0.24c-0.34-0.1-0.7-0.2-1.06-0.31c-0.29-0.09-0.59-0.17-0.89-0.26c-0.37-0.11-0.75-0.23-1.14-0.34c-0.31-0.1-0.63-0.19-0.95-0.29c-0.39-0.12-0.78-0.24-1.18-0.37c-0.33-0.11-0.67-0.21-1.01-0.32c-0.41-0.13-0.82-0.27-1.24-0.41c-0.35-0.11-0.69-0.23-1.05-0.35c-0.42-0.14-0.84-0.29-1.26-0.43c-0.37-0.13-0.74-0.25-1.11-0.39c-0.43-0.15-0.87-0.31-1.3-0.47c-0.38-0.13-0.75-0.27-1.13-0.41c-0.44-0.16-0.89-0.33-1.33-0.5c-0.39-0.15-0.78-0.29-1.17-0.44c-0.45-0.17-0.9-0.35-1.35-0.53c-0.4-0.16-0.79-0.31-1.2-0.48c-0.45-0.18-0.91-0.37-1.36-0.56c-0.4-0.17-0.8-0.33-1.2-0.5c-0.45-0.19-0.91-0.39-1.36-0.59c-0.41-0.18-0.82-0.36-1.23-0.54c-0.45-0.2-0.9-0.41-1.35-0.62c-0.41-0.19-0.82-0.38-1.23-0.57c-0.45-0.21-0.9-0.44-1.35-0.65c-0.41-0.2-0.82-0.4-1.23-0.61c-0.45-0.22-0.89-0.45-1.33-0.69c-0.41-0.21-0.81-0.42-1.21-0.63c-0.44-0.24-0.88-0.48-1.32-0.72c-0.4-0.22-0.8-0.44-1.19-0.66c-0.43-0.25-0.86-0.51-1.29-0.76c-0.39-0.23-0.78-0.46-1.16-0.69c-0.42-0.26-0.84-0.53-1.26-0.8c-0.38-0.24-0.76-0.48-1.13-0.72c-0.41-0.28-0.82-0.56-1.22-0.84c-0.36-0.25-0.73-0.49-1.08-0.75c-0.4-0.29-0.79-0.58-1.18-0.88c-0.34-0.26-0.69-0.51-1.03-0.77c-0.39-0.3-0.76-0.62-1.14-0.93c-0.32-0.26-0.64-0.52-0.96-0.79c-0.38-0.33-0.74-0.66-1.11-1c-0.29-0.26-0.59-0.52-0.87-0.79c-0.38-0.36-0.73-0.72-1.09-1.09c-0.25-0.25-0.51-0.5-0.75-0.76c-0.39-0.42-0.75-0.85-1.12-1.27c-0.19-0.22-0.39-0.43-0.57-0.65c-0.54-0.65-1.05-1.31-1.53-1.99c-15.49-21.77 14.08-41.12 15.57-42.06c0 0 0 0 0.01 0c16.88-11.11 34.59-10.25 53.13 2.56c19.67 14.54 26.27 41.33 28.26 52.9c0.44 2.54 0.65 4.35 0.73 5.13l0.05 0.45l42.59-3.61c-8.91-42.04-6.48-73.6 7.28-94.65c13.76-21.04 40.26-20.73 79.49 0.94c4.03-12.77 9.75-26.96 17.16-42.59c6.8-14.95 15.37-31.88 25.28-47.39c3.02-4.72 6.4-8.9 10.05-12.66c-0.1 0.08-0.18 0.15-0.25 0.21c9.8-12.45 71.93-53.78 133.83-11.81c38.93 26.4 48.46 101.05 49.75 157.62c1.84 31.99-0.65 57.35-1.7 66.13c-0.07 0.58-0.13 1.15-0.21 1.71c0.02 0.01 0.03 0.02 0.05 0.03c1.25 0.76 2.03 1.28 2.34 1.48c0.01 0.01 0.01 0.01 0.02 0.01z" />
		</g>
		<g id="&lt;Group&gt;">
			<g id="&lt;Group&gt;">
				<path id="&lt;Path&gt;" class="s3" d="m21.87 1288.9c8.91-7.47 21.04-10.47 32.65-9.68c11.61 0.8 24.37 3.52 34.46 9.3c-2.18-4.97-1.55-11.06 1.6-15.49c3.14-4.42 9.2-7.91 14.61-7.48c-13.66-12.77-13.84-36.18-2.66-51.18c11.17-14.99 31.22-21.71 49.83-19.87c18.61 1.83 38.83 12.28 53.19 24.26c-10.53-16.38-14.62-42.87-1.02-58.76c11-12.85 30.07-16.47 45.9-17.04c22.68-0.82 45.78 6.28 63.49 20.62c9.41 7.63 17.46 17.31 21.45 28.75c3.98 11.44 3.5 24.75-2.92 35.02c7.16-1.9 12.99-2.84 20.05-0.62c7.06 2.22 12.8 10.32 9.73 17.06c4.43-6.56 16.49-10.86 24.3-9.6c7.81 1.26 14.64 7.35 16.78 14.97c19.24-5.48 39.46-5 57.18 4.28c17.73 9.28 30.36 29.59 26.73 49.27c6.49-0.87 14.37-1.35 20.58 0.71c6.21 2.07 11.84 6.72 13.7 12.99c1.86 6.27-0.97 13.99-7.03 16.47c4.5 3.92 3.97 12.01 0.77 17.04c-3.21 5.03-8.73 8.09-14.24 10.37c-31.7 13.14-67.71 6.82-101.4 0.3c-33.02 23.06-80.52 22.47-115.71 2.87c-33.61 15.66-73.33 11.78-103.4-9.91c-28.92 9.52-63 17.47-93.22 13.75c-30.22-3.71-60.12-18.83-76.15-44.72c-6.13-9.89 1.83-26.24 10.74-33.72z" />
				<path id="&lt;Path&gt;" class="s4" d="m152.35 1194.51c18.61 1.83 38.83 12.28 53.19 24.26c-10.53-16.38-14.62-42.87-1.02-58.76c0.58-0.68 1.19-1.32 1.82-1.95c0.19-0.19 0.38-0.39 0.57-0.57c0.49-0.47 1-0.93 1.52-1.37c11.25-9.7 27.89-12.65 41.99-13.15c15.31-0.55 30.81 2.52 44.72 8.97c0 0 0 0 0 0c3.2 1.49 6.32 3.16 9.33 5.01c0.3 0.19 0.6 0.38 0.9 0.57c1.06 0.66 2.11 1.34 3.13 2.06c0.45 0.32 0.91 0.62 1.36 0.95c1.37 0.99 2.73 2 4.04 3.07c9.41 7.63 17.46 17.31 21.45 28.75c0.23 0.65 0.44 1.31 0.63 1.97c0.06 0.21 0.12 0.43 0.18 0.65c0.13 0.46 0.25 0.91 0.36 1.37c0.06 0.25 0.13 0.51 0.19 0.76c0.1 0.44 0.2 0.88 0.28 1.32c0.05 0.25 0.11 0.51 0.15 0.76c0.1 0.53 0.18 1.07 0.26 1.62c0.05 0.34 0.09 0.69 0.14 1.04c0.05 0.44 0.11 0.87 0.15 1.31c0.03 0.35 0.06 0.7 0.08 1.04c0.02 0.32 0.04 0.65 0.06 0.97c0.02 0.38 0.03 0.77 0.04 1.15c0.01 0.27 0.01 0.54 0.01 0.82c0 0.42 0 0.84-0.01 1.26c0 0.11-0.01 0.22-0.02 0.34c-0.04 1.04-0.11 2.06-0.22 3.09c-0.01 0.08-0.01 0.17-0.03 0.25c-0.05 0.5-0.13 0.99-0.2 1.48c-0.02 0.15-0.05 0.3-0.07 0.45c-0.08 0.49-0.17 0.99-0.27 1.48c-0.01 0.03-0.01 0.05-0.02 0.08c-0.37 1.77-0.86 3.51-1.46 5.22v0c-0.83 2.29-1.87 4.5-3.18 6.59c7.16-1.9 12.99-2.84 20.05-0.62c7.06 2.22 12.8 10.32 9.73 17.06c4.43-6.56 16.49-10.86 24.3-9.6c7.81 1.26 14.64 7.35 16.78 14.97c11.73-3.34 23.83-4.45 35.5-2.71c-14.66 0.53-29.21 4.47-42 11.67c-3.25-6.93-11.33-10.97-18.93-9.96c-7.59 1.01-14.35 5.17-20.78 9.33c0.95-7.58-6.02-14.92-13.21-17.51c-7.18-2.59-15.14-1.63-22.61-0.06c4.26-12.95 2.61-27.13-4.12-38.99c-8.67-15.29-21.71-28.12-37.36-36.16c-18.68-9.59-40.75-12.2-61.23-7.67c-7.5 1.66-13.3 7.79-14.21 15.41c0 0.04-0.01 0.08-0.01 0.12c-2.55 21.68 3.34 44.23 16.14 61.91c-18.81-12.17-39.65-22.08-61.03-28.77c-13.75-4.31-28.72-6.02-42.86-3.8c10.57-6.16 23.46-8.69 35.74-7.48z" />
				<path id="&lt;Path&gt;" class="s4" d="m361.23 1275.61c5.97-4.86 14.14-6.91 21.71-5.47c7.56 1.45 14.39 6.38 18.15 13.1c-9.37-3.68-30.01-9.76-39.85-7.63z" />
				<path id="&lt;Path&gt;" class="s4" d="m243.33 1257.04c6.41-9.3 16.77-15.77 27.93-17.46c11.16-1.7 22.98 1.42 31.86 8.38c-18.94-5.12-42.39 0.01-59.79 9.08z" />
				<path id="&lt;Path&gt;" class="s4" d="m139.63 1297.23c-5.59-7.14-5-17.89-0.06-25.49c4.95-7.6 13.46-12.32 22.27-14.49c8.42-2.08 17.47-2.05 25.63 0.87c-10.81-2.57-24.29 2.48-33.13 9.21c-8.84 6.73-14.32 18.8-14.71 29.9z" />
				<path id="&lt;Path&gt;" class="s5" d="m521.5 1316.44c1.86 6.27-0.97 13.99-7.03 16.47c4.5 3.92 3.97 12.01 0.77 17.04c-3.21 5.03-8.73 8.09-14.24 10.37c-31.7 13.14-67.71 6.82-101.4 0.3c-33.02 23.06-80.52 22.47-115.71 2.87c-33.61 15.66-73.33 11.78-103.4-9.91c-28.92 9.52-63 17.47-93.22 13.75c-30.22-3.71-60.12-18.83-76.15-44.72c-6.13-9.89 1.83-26.24 10.74-33.72c8.91-7.47 21.04-10.47 32.65-9.68c2.36 0.16 4.77 0.41 7.19 0.74c-15.19 14.56-35.04 41.57 0.04 60.68c33.5 18.25 71.78 6.42 114.83-35.48c0.58 66.73 44.1 75.06 130.54 25c38.71 29.98 70.87 23.14 96.49-20.52c3.64 24.45 23.58 37.69 59.81 39.73c36.24 2.04 47.01-6.04 32.31-24.23c14.14-2.88 15.61-10.57 4.41-23.07c2.69 0.17 5.3 0.58 7.67 1.37c6.21 2.07 11.84 6.72 13.7 12.99z" />
			</g>
		</g>
		<path id="&lt;Path&gt;" class="s2" d="m554.56 218.52c-0.63 1.01-1.31 1.98-1.98 2.96c0.02-0.01 0.05-0.02 0.07-0.03c-0.19 0.28-0.39 0.53-0.59 0.8c-0.6 0.86-1.22 1.7-1.86 2.54c-0.5 0.67-1.01 1.33-1.54 1.98c-0.66 0.81-1.32 1.61-2.01 2.4c-0.55 0.63-1.11 1.26-1.67 1.88c-0.7 0.76-1.41 1.51-2.14 2.25c-0.59 0.6-1.2 1.2-1.81 1.78c-0.74 0.71-1.49 1.41-2.25 2.1c-0.64 0.57-1.29 1.13-1.95 1.69c-0.77 0.66-1.55 1.31-2.35 1.94c-0.69 0.54-1.38 1.07-2.08 1.6c-0.8 0.6-1.61 1.2-2.43 1.78c-0.73 0.51-1.48 1.01-2.22 1.51c-0.82 0.55-1.65 1.1-2.49 1.62c-0.78 0.48-1.56 0.95-2.35 1.41c-0.84 0.5-1.68 0.99-2.54 1.46c-0.82 0.45-1.65 0.88-2.48 1.32c-0.85 0.44-1.7 0.89-2.57 1.31c-0.87 0.42-1.74 0.82-2.62 1.22c-0.86 0.39-1.71 0.78-2.57 1.15c-0.91 0.39-1.84 0.75-2.76 1.12c-0.85 0.34-1.7 0.69-2.56 1.01c-0.96 0.35-1.93 0.68-2.89 1.01c-0.84 0.29-1.68 0.59-2.53 0.86c-1.01 0.32-2.03 0.61-3.05 0.9c-0.82 0.24-1.63 0.49-2.46 0.71c-1.09 0.29-2.19 0.54-3.28 0.8c-0.76 0.18-1.53 0.38-2.29 0.55c-1.24 0.27-2.49 0.49-3.74 0.73c-0.63 0.12-1.26 0.26-1.89 0.36c-1.88 0.32-3.77 0.6-5.66 0.83c-30.77 3.78-65.47-4.31-94.92-14.01c-30.62 22.09-71.06 26.04-105.28 10.1c-35.84 19.95-84.2 20.56-117.82-2.93c-34.3 6.65-70.96 13.08-103.24-0.3c-5.62-2.33-11.23-5.44-14.5-10.56c-3.27-5.12-3.8-13.35 0.78-17.35c-6.16-2.52-9.05-10.38-7.16-16.77c0.23-0.8 0.53-1.57 0.88-2.31c0.27-0.57 0.59-1.1 0.92-1.64c0.1-0.17 0.18-0.35 0.29-0.51c0.38-0.58 0.81-1.13 1.25-1.66c0.08-0.1 0.15-0.21 0.23-0.31c0.48-0.56 1.01-1.09 1.56-1.6c0.06-0.06 0.11-0.12 0.17-0.18c0.59-0.54 1.22-1.05 1.87-1.53c0.02-0.02 0.05-0.04 0.07-0.05c0.65-0.47 1.33-0.91 2.02-1.32c0.03-0.02 0.05-0.04 0.08-0.05c0.69-0.4 1.39-0.75 2.11-1.08c0.04-0.02 0.08-0.05 0.13-0.07c0.69-0.31 1.39-0.57 2.09-0.82c0.08-0.03 0.16-0.06 0.24-0.09c0.01 0 0.02-0.01 0.03-0.01c0.04-0.01 0.08-0.02 0.11-0.03c0 0 0 0-0.01 0c0.14-0.05 0.3-0.08 0.45-0.12c0.65-0.2 1.31-0.39 1.99-0.54c0.06-0.01 0.13-0.02 0.2-0.04c4.13-0.87 8.72-0.9 13.07-0.56c0.51 0.04 1.01 0.09 1.51 0.14c0.37 0.04 0.74 0.06 1.11 0.1c0.86 0.1 1.71 0.2 2.53 0.31c-3.69-20.03 9.17-40.72 27.21-50.17c1.29-0.67 2.58-1.29 3.89-1.87c0.39-0.17 0.78-0.33 1.16-0.49c0.95-0.4 1.91-0.79 2.88-1.14c0.41-0.15 0.83-0.3 1.25-0.45c1-0.35 2.01-0.67 3.03-0.98c0.34-0.1 0.69-0.21 1.04-0.31c1.32-0.37 2.66-0.71 4-1.01c0.03-0.01 0.05-0.02 0.08-0.02c1.58-0.34 3.17-0.63 4.77-0.86c0 0 0.01 0 0.01 0c1.42-0.21 2.84-0.38 4.26-0.5c0.15-0.01 0.3-0.03 0.45-0.04c1.33-0.11 2.67-0.19 4.01-0.23c0.13-0.01 0.27-0.01 0.4-0.02c2.96-0.08 5.92-0.01 8.89 0.23c0.05 0 0.11 0.01 0.16 0.02c1.34 0.11 2.67 0.26 4.01 0.43c0.38 0.05 0.75 0.1 1.13 0.16c1.02 0.15 2.05 0.31 3.07 0.49c0.45 0.08 0.91 0.16 1.36 0.25c0.99 0.19 1.98 0.4 2.97 0.62c0.42 0.1 0.85 0.18 1.27 0.29c1.38 0.33 2.77 0.68 4.14 1.08c0.41-1.46 0.98-2.86 1.71-4.18c3.12-5.73 8.91-10.02 15.38-11.07c1-0.16 2.06-0.23 3.16-0.22c6.08 0.06 13.5 2.59 18.31 6.51c1.31 1.07 2.43 2.24 3.27 3.49c-1.56-3.43-0.88-7.21 1.09-10.41c1.97-3.2 5.23-5.83 8.82-6.96c7.2-2.26 13.13-1.3 20.42 0.63c-0.62-0.99-1.17-2.02-1.68-3.06c-0.06-0.12-0.12-0.24-0.18-0.37c-0.51-1.07-0.97-2.17-1.37-3.28h0c0-0.01 0-0.02-0.01-0.02c-0.62-1.71-1.1-3.48-1.47-5.27c0-0.01 0-0.01 0-0.02c0-0.01 0-0.02 0-0.02c-0.11-0.54-0.21-1.09-0.3-1.63c-0.02-0.13-0.04-0.26-0.06-0.39c0-0.02-0.01-0.04-0.01-0.07c-0.24-1.6-0.38-3.21-0.44-4.83c0-0.01 0-0.01 0-0.02c0-0.11-0.01-0.21-0.01-0.32c-0.02-0.66-0.02-1.33 0-2c0-0.05 0-0.09 0-0.14c0 0 0 0 0 0c0.01-0.45 0.03-0.89 0.05-1.34c0.02-0.27 0.03-0.54 0.05-0.81c0-0.02 0-0.04 0-0.05c0.08-1.14 0.2-2.27 0.37-3.4c0 0 0-0.01 0-0.01c0.06-0.43 0.13-0.85 0.21-1.28c0.32-1.79 0.73-3.56 1.24-5.29c0 0 0-0.01 0-0.01c0.2-0.67 0.41-1.35 0.64-2.01c4.06-11.65 12.26-21.51 21.84-29.28c5.86-4.74 12.3-8.69 19.11-11.86c0 0 0 0 0 0c1.68-0.78 3.38-1.5 5.09-2.18c0.18-0.07 0.37-0.15 0.55-0.22c3.5-1.36 7.07-2.53 10.7-3.48c0.19-0.05 0.39-0.09 0.58-0.14c1.56-0.4 3.14-0.76 4.72-1.09c0.35-0.07 0.7-0.14 1.04-0.21c1.76-0.34 3.53-0.65 5.3-0.9c0.01 0 0.02 0 0.02 0c1.78-0.25 3.57-0.44 5.36-0.59c0.45-0.04 0.89-0.06 1.34-0.1c1.35-0.1 2.71-0.17 4.07-0.21c0.5-0.02 1-0.04 1.5-0.04c1.75-0.03 3.51-0.03 5.27 0.04c0.95 0.03 1.91 0.08 2.89 0.14c0.35 0.02 0.7 0.05 1.05 0.07c0.62 0.04 1.24 0.08 1.87 0.14c0.45 0.04 0.91 0.08 1.36 0.13c0.52 0.05 1.05 0.1 1.58 0.16c0.52 0.06 1.04 0.12 1.56 0.19c0.46 0.06 0.92 0.12 1.38 0.18c0.57 0.08 1.15 0.17 1.72 0.26c0.4 0.06 0.8 0.13 1.19 0.2c0.63 0.11 1.26 0.22 1.88 0.34c0.32 0.06 0.64 0.13 0.95 0.19c0.7 0.14 1.4 0.29 2.09 0.45c0.18 0.04 0.36 0.09 0.55 0.13c4.53 1.08 8.96 2.57 13.09 4.58c0.04 0.02 0.09 0.04 0.14 0.07c0.79 0.39 1.56 0.8 2.32 1.22c0.09 0.05 0.18 0.1 0.27 0.15c0.74 0.42 1.47 0.86 2.19 1.32c0.09 0.06 0.18 0.12 0.28 0.18c0.72 0.47 1.43 0.96 2.12 1.47c0.06 0.05 0.13 0.1 0.19 0.14c1.48 1.11 2.89 2.32 4.21 3.64c0 0 0.01 0.01 0.01 0.01c0.64 0.64 1.26 1.29 1.86 1.98c10.31 12.04 10.63 30.05 5.7 45.36l0.01-0.01c-0.01 0.03-0.02 0.05-0.03 0.08c-0.37 1.14-0.77 2.26-1.2 3.37c-0.06 0.16-0.11 0.32-0.17 0.48c-0.44 1.11-0.91 2.2-1.4 3.27c-0.07 0.15-0.13 0.3-0.19 0.45c-0.49 1.05-1.01 2.06-1.55 3.05c-0.08 0.16-0.16 0.32-0.24 0.48c-0.63 1.14-1.28 2.24-1.96 3.3c14.62-12.2 35.21-22.83 54.16-24.7c1.42-0.14 2.85-0.21 4.28-0.26c0.39-0.01 0.78-0.01 1.17-0.01c1.12-0.01 2.23 0 3.36 0.05c0.35 0.01 0.69 0.03 1.04 0.05c2.98 0.17 5.96 0.56 8.89 1.15c0.11 0.02 0.21 0.05 0.32 0.07c1.43 0.3 2.84 0.65 4.24 1.04c0.09 0.02 0.17 0.05 0.25 0.07c4.5 1.3 8.82 3.12 12.83 5.45c0 0 0.01 0.01 0.02 0.01c5.55 3.23 10.48 7.43 14.35 12.62c11.38 15.26 11.19 39.1-2.71 52.1c5.51-0.43 11.68 3.12 14.88 7.62c3.2 4.5 3.84 10.7 1.62 15.77c10.27-5.89 23.27-8.66 35.09-9.48c11.82-0.81 24.16 2.24 33.24 9.86c0.66 0.55 1.31 1.17 1.96 1.81c0.19 0.2 0.38 0.4 0.57 0.6c0.46 0.48 0.91 0.98 1.36 1.5c0.2 0.23 0.39 0.47 0.59 0.71c0.48 0.58 0.94 1.19 1.39 1.81c0.13 0.18 0.26 0.34 0.38 0.52c0.58 0.82 1.13 1.67 1.66 2.54c0.08 0.14 0.16 0.28 0.23 0.41c0.44 0.74 0.85 1.5 1.24 2.26c0.12 0.24 0.24 0.48 0.36 0.73c0.35 0.71 0.67 1.44 0.97 2.17c0.09 0.22 0.18 0.43 0.27 0.65c0.75 1.91 1.32 3.85 1.68 5.77c0.01 0.05 0.03 0.11 0.04 0.16c0-0.01-0.01-0.01-0.02-0.02c0.85 4.6 0.48 9.08-1.77 12.71z" />
		<g id="&lt;Group&gt;">
			<path id="&lt;Path&gt;" class="s6" d="m532.73 205.88c-16.31 26.36-46.77 41.75-77.54 45.54c-30.77 3.78-65.47-4.31-94.92-14.01c-30.62 22.09-71.06 26.04-105.28 10.1c-35.84 19.95-84.2 20.56-117.82-2.93c-34.3 6.65-70.96 13.08-103.24-0.3c-5.62-2.33-11.23-5.44-14.5-10.56c-3.27-5.12-3.8-13.35 0.78-17.35c-6.16-2.52-9.05-10.38-7.16-16.77c1.89-6.39 7.63-11.13 13.95-13.23c6.32-2.1 14.35-1.62 20.96-0.73c-3.69-20.03 9.17-40.72 27.21-50.17c18.05-9.44 38.64-9.94 58.23-4.36c2.18-7.76 9.13-13.96 17.08-15.24c7.96-1.28 20.24 3.1 24.74 9.78c-3.12-6.87 2.72-15.11 9.91-17.38c7.2-2.26 13.13-1.3 20.42 0.63c-6.54-10.46-7.03-24.01-2.97-35.66c4.06-11.65 12.26-21.51 21.84-29.28c18.03-14.6 41.55-21.83 64.64-21c16.12 0.58 35.54 4.27 46.74 17.35c13.85 16.18 9.68 43.15-1.04 59.83c14.62-12.2 35.21-22.83 54.16-24.7c18.95-1.87 39.37 4.97 50.74 20.24c11.38 15.26 11.19 39.1-2.71 52.1c5.51-0.43 11.68 3.12 14.88 7.62c3.2 4.5 3.84 10.71 1.62 15.77c10.27-5.89 23.27-8.66 35.09-9.48c11.82-0.81 24.16 2.24 33.24 9.86c9.08 7.61 17.17 24.26 10.94 34.33z" />
			<path id="&lt;Path&gt;" class="s4" d="m425.32 83.06c-14.39-2.26-29.63-0.51-43.64 3.87c-21.76 6.81-42.99 16.9-62.14 29.29c13.04-18 19.03-40.96 16.44-63.04c-0.01-0.04-0.01-0.08-0.02-0.12c-0.93-7.76-6.83-14.01-14.46-15.69c-20.85-4.61-43.33-1.95-62.34 7.82c-15.93 8.18-29.21 21.25-38.04 36.81c-6.84 12.07-8.53 26.51-4.19 39.7c-7.61-1.6-15.71-2.57-23.03 0.06c-7.31 2.64-14.41 10.12-13.45 17.83c-6.55-4.23-13.43-8.46-21.16-9.5c-7.73-1.03-15.96 3.08-19.28 10.14c-13.02-7.33-27.83-11.35-42.76-11.89c11.89-1.77 24.2-0.64 36.15 2.76c2.18-7.76 9.13-13.96 17.08-15.24c7.96-1.28 20.24 3.1 24.75 9.78c-3.12-6.87 2.72-15.11 9.91-17.38c7.2-2.26 13.13-1.3 20.42 0.63c-1.32-2.12-2.39-4.38-3.23-6.71h0c-0.6-1.74-1.1-3.51-1.48-5.31c-0.01-0.03-0.01-0.06-0.02-0.09c-0.1-0.5-0.2-1-0.28-1.51c-0.02-0.15-0.05-0.31-0.07-0.46c-0.07-0.5-0.15-1-0.2-1.51c-0.01-0.09-0.02-0.17-0.03-0.26c-0.11-1.04-0.18-2.09-0.22-3.15c0-0.12-0.01-0.23-0.01-0.35c-0.01-0.42-0.01-0.85-0.01-1.28c0-0.28 0-0.55 0.01-0.83c0.01-0.39 0.02-0.78 0.04-1.17c0.02-0.33 0.04-0.65 0.06-0.98c0.03-0.36 0.05-0.71 0.08-1.06c0.04-0.45 0.09-0.9 0.15-1.34c0.04-0.35 0.09-0.71 0.14-1.06c0.08-0.55 0.17-1.09 0.27-1.64c0.05-0.26 0.1-0.52 0.15-0.77c0.09-0.45 0.18-0.89 0.29-1.34c0.06-0.26 0.12-0.51 0.18-0.77c0.12-0.47 0.24-0.93 0.37-1.39c0.06-0.22 0.12-0.44 0.19-0.66c0.2-0.67 0.41-1.35 0.64-2.01c4.06-11.65 12.26-21.51 21.84-29.28c1.34-1.08 2.71-2.12 4.12-3.12c0.46-0.33 0.92-0.64 1.38-0.96c1.04-0.74 2.11-1.42 3.18-2.1c0.31-0.2 0.61-0.39 0.92-0.58c3.07-1.88 6.24-3.59 9.5-5.1c0 0 0 0 0 0v0c14.16-6.58 29.94-9.7 45.54-9.14c14.35 0.52 31.3 3.52 42.75 13.4c0.52 0.45 1.04 0.91 1.55 1.39c0.2 0.19 0.39 0.39 0.58 0.58c0.64 0.64 1.26 1.29 1.86 1.98c13.85 16.18 9.68 43.15-1.04 59.83c14.62-12.2 35.21-22.83 54.16-24.7c12.5-1.23 25.63 1.35 36.39 7.62z" />
			<path id="&lt;Path&gt;" class="s4" d="m135.67 165.79c3.83-6.85 10.78-11.86 18.48-13.34c7.7-1.47 16.02 0.62 22.1 5.57c-10.02-2.16-31.05 4.02-40.58 7.77z" />
			<path id="&lt;Path&gt;" class="s4" d="m235.41 129.87c9.04-7.1 21.07-10.27 32.44-8.54c11.37 1.72 21.91 8.32 28.44 17.78c-17.72-9.24-41.59-14.47-60.88-9.24z" />
			<path id="&lt;Path&gt;" class="s4" d="m386.9 149.59c-9-6.85-22.73-11.99-33.74-9.38c8.32-2.97 17.53-3 26.1-0.88c8.97 2.21 17.64 7.01 22.67 14.75c5.04 7.74 5.64 18.69-0.05 25.96c-0.4-11.31-5.98-23.6-14.98-30.45z" />
			<g id="&lt;Group&gt;">
				<path id="&lt;Path&gt;" class="s4" d="m47.96 185.64c-3.69-20.03 9.17-40.72 27.21-50.17c5.57-2.91 11.37-4.97 17.31-6.26c9.43 17.4 17.14 48.93-44.53 56.43z" />
				<path id="&lt;Path&gt;" class="s4" d="m27.11 186.33c5.78 0.48 12.68 0.3 20.85-0.7c-6.57-0.88-14.54-1.37-20.85 0.7z" />
			</g>
			<path id="&lt;Path&gt;" class="s4" d="m452.64 176.73c-2.55-14.16-14.04-20.09-34.46-17.79c14.82-22.32 13.42-39.73-4.2-52.25c-17.62-12.52-49.1-9.34-94.44 9.53l21.97-30.56c-1.69 5.26-4 10.21-6.74 14.48c14.62-12.2 35.21-22.83 54.16-24.7c18.95-1.87 39.37 4.97 50.74 20.24c11.38 15.26 11.19 39.1-2.71 52.1c5.51-0.43 11.68 3.12 14.88 7.62c3.2 4.5 3.84 10.71 1.62 15.77c10.27-5.89 23.27-8.66 35.09-9.48c11.82-0.81 24.16 2.24 33.24 9.86c5.81 4.88 11.22 13.45 12.72 21.64c-17.58-18.96-44.87-24.44-81.87-16.46z" />
			<g id="&lt;Group&gt;" style="mix-blend-mode: multiply">
				<path id="&lt;Path&gt;" class="s7" d="m147.1 189.9c0-0.01 0-0.03 0-0.04c0 0.01 0 0.02 0 0.04z" />
				<path id="&lt;Path&gt;" class="s8" d="m455.19 251.42c-30.77 3.78-65.47-4.31-94.92-14.01c-30.62 22.09-71.06 26.04-105.28 10.1c-35.84 19.95-84.2 20.56-117.82-2.93c-34.3 6.65-70.96 13.08-103.24-0.3c-5.62-2.33-11.23-5.44-14.5-10.56c-3.27-5.12-3.8-13.35 0.78-17.35c-6.16-2.52-9.05-10.38-7.16-16.77c1.89-6.38 7.61-11.11 13.91-13.21c-5.62 9.51-9.86 25.08 14.9 33.3c-9 13.5-3.07 21.08 17.79 22.73c31.27 2.47 85.41-32.24 87.45-52.5c-0.18 1.33-4.96 39.96 40.68 47.72c30.96 5.27 50.29-8.46 57.97-41.18c9.66 32.28 30.74 45.46 63.24 39.53c32.5-5.93 45.68-29.98 39.53-72.14c19.98 44.58 58.41 64.45 115.28 59.62c29.88-2.54 51.51-8.27 67.01-14.64c-16.71 24.57-46.01 38.96-75.62 42.6z" />
			</g>
		</g>
		<g id="&lt;Group&gt;">
			<g id="&lt;Group&gt;">
			</g>
		</g>
		<g id="&lt;Group&gt;">
			<path id="&lt;Path&gt;" class="s9" d="m-154.94 596.66c1.13 0.69 1.99 1.23 2.57 1.63c-253.01 2.69-386.74 1.8-401.19-2.66c-0.23-0.06-0.43-0.13-0.58-0.2c-0.01-0.01-0.03-0.01-0.04-0.02c-1.7-0.37-46.59-10.25-61.78-31.61c-15.49-21.77 14.08-41.12 15.57-42.06c0 0 0 0 0.01 0c16.88-11.11 34.59-10.25 53.13 2.56c19.67 14.54 26.27 41.33 28.26 52.9c0.44 2.54 0.65 4.35 0.73 5.13l0.05 0.45l42.59-3.61c-8.91-42.04-6.48-73.6 7.28-94.65c13.76-21.04 40.26-20.73 79.49 0.94c11.17-33.17 25.32-63.16 42.44-89.98c35.91-56.24 121.11-41.45 144.09-13.28c62.85 77.08 49.37 199.03 47.37 214.46z" />
			<path id="&lt;Path&gt;" class="s10" d="m-286.52 358.37c-24.25 12.43-41.23 46.08-50.93 100.95c-9.71 54.87 0.93 88.17 31.92 99.91c-77.92-3.77-164.75 30.29-163.26 30.01c11.69-5.46 25.47-19.17 41.35-41.14c15.88-21.97 14.96-47.54-2.75-76.73l41.35 14.07c26.3-83.38 60.41-125.74 102.32-127.09z" />
			<path id="&lt;Path&gt;" class="s11" d="m-162.32 519.6c-71.77 22.63-118.04 12.32-138.81-30.9c-20.77-43.23-17.72-85.4 9.17-126.51c84.73-27.69 127.95 24.78 129.64 157.41z" />
			<path id="&lt;Path&gt;" class="s1" d="m-202.78 371.21c43.86 29.75 59.73 105.44 47.61 227.08c4.08-26.94 0.02-69.24-12.19-126.91c-11.94-5.22-27.18-16.79-45.7-34.71c-18.53-17.92-27.9-40.72-28.13-68.41c-39.93-10.59-71.73-5.67-95.41 14.76c9.8-12.45 71.93-53.78 133.83-11.81z" />
			<path id="&lt;Path&gt;" class="s1" d="m-226.96 355.2c-1.58-1.24-9.54-6.4-3.7-7.97c2.2-0.59 5.9 0.41 7.88 1.33c1.81 0.84 3.74 1.67 4.93 3.33c0.79 1.11 1.91 2.51 1.52 3.98c-0.35 1.34-1.87 2.48-3.19 2.68c-1.54 0.23-3.31-0.44-4.77-0.7c-2.02-0.35-3.99-1.79-5.97-2l3.31-0.66z" />
			<path id="&lt;Path&gt;" class="s1" d="m-128.75 337.79c8.14 15.92 7.66 32.45-1.08 36.91c-8.73 4.46-22.41-4.82-30.55-20.74c-8.14-15.92-7.66-32.44 1.08-36.91c8.73-4.47 22.41 4.82 30.55 20.74z" />
			<path id="&lt;Path&gt;" class="s1" d="m-150.57 401.31c2.57 5.04 2.42 10.27-0.34 11.68c-2.77 1.41-7.09-1.53-9.67-6.56c-2.58-5.04-2.42-10.27 0.34-11.68c2.76-1.41 7.09 1.53 9.67 6.56z" />
			<path id="&lt;Path&gt;" class="s1" d="m-288.31 331.08c5.36-1.8 10.51-0.88 11.5 2.06c0.99 2.94-2.56 6.79-7.92 8.59c-5.36 1.8-10.51 0.88-11.5-2.06c-0.99-2.94 2.56-6.79 7.92-8.59z" />
			<path id="&lt;Path&gt;" class="s12" d="m-545.32 583.17c31.37 11.41 63.99 11.41 97.87 0c121.93-41.08 220.29-36.04 295.08 15.12c-258.23 2.74-392.15 1.79-401.75-2.87c-30.9-6.56-51.51-17.1-61.83-31.62c-15.49-21.77 14.08-41.12 15.57-42.06c1.48-0.94-13.05 13.41 1.03 26.83c14.08 13.42 23.08 8.84 28.81 23.08c3.82 9.49 12.23 13.33 25.23 11.5z" />
		</g>
		<path id="&lt;Path&gt;" class="s2" d="m414.06 584.03c-2.79 10.12-10.91 17.8-19.12 24.34c-39.23 31.23-89.14 48.76-139.28 48.94c-50.14 0.17-91.23-8.77-130.68-39.72c-27.69 2.03-56.02-6.37-78.12-23.16c-22.11-16.79-37.8-41.82-43.28-69.04c-0.21-1.02-0.39-2.05-0.56-3.08c-0.02-0.14-0.04-0.27-0.06-0.41c-0.16-1-0.31-2.01-0.43-3.02c0-0.01 0-0.02 0-0.03c-1.37-11.06-0.48-22.54 5.45-31.81c1.2-1.87 2.57-3.57 4.08-5.13c0 0 0.01 0 0.01-0.01c1.76-1.83 3.71-3.45 5.81-4.87c0.01-0.01 0.02-0.01 0.03-0.02c0.6-0.4 1.21-0.78 1.84-1.16c0.16-0.1 0.32-0.2 0.49-0.29c0.57-0.33 1.16-0.65 1.75-0.96c0.22-0.12 0.45-0.23 0.67-0.34c0.57-0.28 1.15-0.56 1.73-0.82c0.25-0.11 0.51-0.22 0.77-0.33c0.58-0.24 1.15-0.48 1.74-0.7c0.27-0.1 0.54-0.19 0.82-0.29c0.59-0.21 1.19-0.42 1.79-0.61c0.08-0.03 0.16-0.04 0.23-0.07c1.2-0.37 2.43-0.68 3.66-0.96c0.46-0.1 0.92-0.21 1.38-0.3c0.44-0.09 0.88-0.16 1.32-0.23c0.51-0.09 1.02-0.17 1.54-0.25c0.42-0.06 0.84-0.11 1.26-0.16c0.55-0.06 1.09-0.12 1.64-0.17c0.4-0.04 0.8-0.07 1.2-0.09c0.58-0.04 1.17-0.07 1.75-0.09c0.37-0.01 0.73-0.03 1.1-0.04c0.65-0.01 1.3 0 1.95 0.01c0.3 0.01 0.6 0 0.9 0.01c0.95 0.03 1.89 0.08 2.83 0.17c16.01 1.38 30.89 8.46 45.36 15.43c1.57-23.16 6.25-41.24 21.79-58.48c15.54-17.24 39.25-27.73 62.24-24.52c1.09 0.15 2.17 0.36 3.24 0.59c21.68 4.4 40.82 22.03 44.06 43.9c4.93-15.77 19.66-27.11 36.37-32.31c0 0 0 0 0 0c1.68-0.52 3.38-0.98 5.09-1.38c0.01 0 0.02-0.01 0.04-0.01c1.7-0.39 3.41-0.72 5.13-0.99c0.02 0 0.04-0.01 0.06-0.01c1.71-0.26 3.43-0.46 5.14-0.6c0.03 0 0.05 0 0.08-0.01c1.71-0.13 3.42-0.2 5.11-0.19c0.03 0 0.05 0 0.08 0c1.7 0 3.39 0.08 5.06 0.22c0.02 0 0.03 0 0.05 0c1.69 0.14 3.35 0.36 4.99 0.65c4.08 0.72 8.03 1.95 11.78 3.63c3 1.34 5.88 2.96 8.59 4.82c0.68 0.46 1.35 0.95 2.01 1.44c13.84 10.39 23.13 27.14 23.22 44.48c0 0.83-0.01 1.65-0.05 2.48c13.9-8.43 30.86-9.38 45.45-3.84c1.46 0.55 2.9 1.17 4.3 1.85c2.81 1.36 5.51 2.98 8.05 4.85c3.81 2.8 7.26 6.15 10.2 10.04c0.87 1.15 1.66 2.34 2.42 3.56c0.2 0.32 0.4 0.65 0.59 0.97c0.67 1.14 1.31 2.29 1.88 3.48c0.07 0.14 0.14 0.27 0.2 0.41c0.17 0.37 0.32 0.74 0.48 1.11c0-0.01 0-0.02 0-0.04c0.06 0.13 0.1 0.27 0.16 0.4c0.32 0.73 0.62 1.46 0.91 2.21c0.14 0.37 0.28 0.73 0.41 1.1c0.05 0.14 0.1 0.29 0.14 0.44c0.33 0.95 0.63 1.91 0.9 2.88c0.15 0.54 0.3 1.08 0.44 1.63c0.23 0.94 0.44 1.88 0.63 2.82c0.04 0.2 0.08 0.39 0.12 0.58c0.09 0.51 0.16 1.03 0.24 1.55c0.07 0.49 0.14 0.98 0.2 1.47c0.06 0.49 0.13 0.97 0.17 1.46c0.08 0.77 0.12 1.54 0.17 2.32c0.04 0.63 0.08 1.25 0.09 1.87c0 0.12 0 0.24 0 0.36c0.01 0.76 0.01 1.51 0 2.26c-0.02 0.77-0.05 1.54-0.1 2.32c-0.05 0.73-0.09 1.45-0.16 2.18c-0.08 0.81-0.2 1.62-0.31 2.43c-0.02 0.11-0.03 0.21-0.04 0.31c-0.08 0.58-0.15 1.15-0.26 1.73c-0.21 1.17-0.47 2.33-0.75 3.49c-0.14 0.56-0.28 1.12-0.44 1.68c-0.32 1.16-0.66 2.31-1.05 3.45c-0.19 0.54-0.41 1.06-0.61 1.6c-0.34 0.88-0.68 1.77-1.06 2.63c-0.25 0.56-0.52 1.11-0.79 1.66c-0.39 0.82-0.81 1.63-1.25 2.42c-0.3 0.54-0.6 1.07-0.92 1.6c-0.47 0.79-0.98 1.57-1.49 2.34c-0.33 0.49-0.65 0.98-1 1.45c-0.6 0.82-1.23 1.6-1.88 2.38c-0.32 0.38-0.62 0.78-0.95 1.16c-1 1.13-2.04 2.23-3.15 3.27c10.22 2.4 15.21 21.58 12.42 31.71z" />
		<path id="&lt;Path&gt;" class="s2" d="m21.05 1016.21c0 0 0 0 0 0c-0.38 0.82-0.81 1.62-1.28 2.39c-7.78 12.73-23.5 19.21-38.4 18.58c-9.12-0.38-17.68-2.32-25.46-7.09c-16.53 10.56-37.28 14.29-56.45 10.13c-19.17-4.16-35.17-16.22-45.83-32.69c-21.15 2.8-43.13-5.5-56.78-21.89c-14.74 21.12-38.19 35.94-63.59 40.21c-25.4 4.26-50.59-1.71-71.41-16.85c-8.28 7.62-20 11.35-31.16 9.9c-11.16-1.45-21.73-8.93-27.79-18.42c-22.26 18.77-53.07 26.96-81.71 21.73c-28.64-5.24-54.44-26.95-68.62-52.37c-19.1-8.56-34.79-24.46-43.11-43.67c-0.49-1.14-0.95-2.29-1.39-3.44c-0.15-0.39-0.28-0.78-0.42-1.17c-0.28-0.77-0.56-1.54-0.81-2.32c-0.16-0.48-0.3-0.96-0.45-1.44c-0.22-0.7-0.43-1.4-0.63-2.1c-0.15-0.53-0.29-1.05-0.42-1.58c-0.17-0.66-0.34-1.33-0.49-1.99c-0.13-0.56-0.26-1.13-0.38-1.69c-0.13-0.63-0.26-1.27-0.38-1.9c-0.11-0.6-0.23-1.19-0.33-1.79c-0.1-0.6-0.19-1.19-0.27-1.79c-0.09-0.64-0.19-1.27-0.27-1.91c-0.07-0.53-0.12-1.06-0.17-1.6c-0.07-0.7-0.15-1.41-0.21-2.12c-0.01-0.14-0.01-0.28-0.02-0.41c-0.15-2.02-0.23-4.05-0.24-6.07c0-0.17-0.01-0.35-0.01-0.52c0-0.89 0.03-1.78 0.06-2.67c0.01-0.32 0.02-0.65 0.03-0.97c0.04-0.86 0.1-1.72 0.16-2.58c0.03-0.35 0.05-0.69 0.08-1.04c0.07-0.86 0.16-1.71 0.26-2.57c0.04-0.34 0.08-0.67 0.12-1.01c0.11-0.87 0.23-1.74 0.37-2.6c0.05-0.3 0.1-0.61 0.15-0.92c0.15-0.89 0.31-1.79 0.5-2.68c0.05-0.24 0.1-0.47 0.15-0.7c0.2-0.96 0.42-1.91 0.65-2.86c0-0.01 0-0.01 0-0.01v0c0.58-2.31 1.24-4.6 2.02-6.86c0.83-2.41 1.8-4.8 2.89-7.13l0 0c0.56-1.2 1.17-2.38 1.8-3.55c0.1-0.19 0.21-0.38 0.31-0.56c0.63-1.13 1.29-2.25 1.99-3.33c0.08-0.13 0.17-0.25 0.25-0.38c0.67-1.02 1.36-2.02 2.09-2.99c0.09-0.13 0.19-0.26 0.28-0.38c0.76-1 1.56-1.97 2.39-2.91c0.17-0.19 0.34-0.38 0.51-0.56c0.85-0.94 1.72-1.84 2.64-2.7c0.08-0.08 0.17-0.15 0.25-0.23c0.87-0.8 1.77-1.57 2.7-2.3c0.18-0.14 0.35-0.29 0.53-0.42c0.98-0.74 1.98-1.44 3.02-2.09c0.21-0.13 0.43-0.26 0.65-0.39c1.09-0.65 2.2-1.28 3.36-1.83c3.95-1.87 8.34-2.92 12.75-3.12c0.88-0.04 1.76-0.05 2.65-0.02c8.8 0.26 17.37 3.89 22.4 11.04c0.77-17.86 6.34-36.25 16.6-51.02c2.37-3.41 4.98-6.62 7.84-9.59c10.74-11.14 24.68-19.59 39.97-21.99c17.38-2.73 35.87 2.83 48.88 14.68c0.87 0.79 1.71 1.62 2.53 2.46c0.25 0.26 0.49 0.54 0.74 0.8c0.55 0.6 1.1 1.19 1.63 1.81c0.28 0.33 0.55 0.67 0.83 1.01c0.47 0.57 0.93 1.15 1.38 1.74c0.28 0.37 0.55 0.74 0.82 1.12c0.42 0.58 0.83 1.17 1.23 1.77c0.26 0.39 0.51 0.78 0.77 1.18c0.38 0.61 0.75 1.22 1.12 1.85c0.23 0.4 0.47 0.8 0.69 1.2c0.36 0.65 0.7 1.31 1.03 1.97c0.2 0.39 0.4 0.77 0.59 1.17c0.36 0.74 0.69 1.5 1.01 2.26c0.14 0.32 0.29 0.64 0.42 0.96c0.45 1.09 0.87 2.19 1.25 3.31c0 0 0 0.01 0 0.01l0 0c2.49 7.27 3.6 15 3.12 22.67c5.49-8.49 11.53-11.44 21.38-13.72c4.11-0.96 8.32-1.3 12.53-1.2c0 0 0 0 0 0c0.01 0 0.03 0 0.04 0c1.4 0.04 2.79 0.13 4.18 0.27c0.13 0.01 0.26 0.03 0.39 0.04c1.25 0.14 2.5 0.31 3.75 0.53c0.24 0.04 0.48 0.08 0.71 0.12c1.14 0.21 2.26 0.45 3.39 0.72c0.29 0.07 0.59 0.13 0.88 0.21c1.36 0.35 2.71 0.73 4.04 1.16c8.37 2.71 16.42 7.17 21.89 14.06c0.59 0.75 1.14 1.53 1.67 2.34c0.05 0.08 0.11 0.16 0.16 0.24c0.49 0.77 0.94 1.57 1.35 2.38c0.06 0.12 0.13 0.24 0.18 0.36c0.4 0.81 0.76 1.63 1.08 2.47c0.05 0.13 0.1 0.26 0.15 0.39c0.31 0.85 0.59 1.72 0.82 2.59c0.03 0.11 0.06 0.22 0.09 0.34c0.23 0.9 0.41 1.81 0.54 2.73c0.01 0.07 0.02 0.14 0.03 0.22c0.13 0.96 0.21 1.93 0.23 2.89c0 0.01 0 0.01 0 0.02c0.03 2.02-0.18 4.03-0.69 5.99l0 0c2.16-7.12 5.27-13.9 9.15-20.23c0 0 0.01-0.01 0.01-0.01c0.55-0.9 1.12-1.79 1.7-2.66c0.01-0.01 0.01-0.02 0.02-0.03c0.58-0.87 1.17-1.73 1.77-2.58c0.02-0.02 0.03-0.05 0.05-0.07c0.6-0.84 1.21-1.67 1.84-2.49c0.02-0.03 0.05-0.06 0.07-0.1c0.62-0.81 1.25-1.61 1.9-2.4c0.03-0.04 0.07-0.08 0.1-0.13c0.64-0.78 1.28-1.55 1.95-2.31c0.05-0.06 0.1-0.11 0.15-0.17c0.65-0.74 1.31-1.48 1.98-2.2c0.06-0.07 0.13-0.13 0.19-0.2c0.66-0.71 1.34-1.41 2.02-2.1c0.08-0.08 0.16-0.16 0.24-0.24c0.67-0.68 1.35-1.34 2.04-2c0.1-0.09 0.2-0.18 0.29-0.28c0.68-0.64 1.36-1.27 2.06-1.89c0.12-0.11 0.24-0.21 0.36-0.31c0.68-0.6 1.37-1.2 2.07-1.78c0.14-0.12 0.29-0.23 0.43-0.35c0.68-0.56 1.36-1.12 2.06-1.67c0.17-0.13 0.34-0.26 0.51-0.4c0.68-0.53 1.36-1.04 2.04-1.55c0.19-0.14 0.38-0.28 0.58-0.42c0.68-0.49 1.36-0.98 2.04-1.46c0.21-0.15 0.43-0.29 0.65-0.44c0.67-0.46 1.34-0.91 2.02-1.35c0.25-0.16 0.5-0.32 0.76-0.48c0.65-0.42 1.31-0.83 1.97-1.23c0.28-0.17 0.56-0.33 0.84-0.5c0.65-0.38 1.29-0.77 1.95-1.13c0.31-0.17 0.62-0.34 0.92-0.51c0.63-0.35 1.27-0.7 1.91-1.04c0.34-0.18 0.68-0.34 1.02-0.52c0.62-0.32 1.24-0.63 1.87-0.94c0.37-0.18 0.74-0.35 1.11-0.53c0.6-0.28 1.2-0.57 1.81-0.84c0.41-0.18 0.81-0.35 1.22-0.53c0.58-0.25 1.16-0.51 1.74-0.75c0.45-0.18 0.89-0.35 1.34-0.53c0.55-0.22 1.11-0.44 1.66-0.65c0.49-0.18 0.98-0.35 1.47-0.53c0.52-0.19 1.04-0.38 1.57-0.56c0.56-0.19 1.12-0.36 1.67-0.54c0.47-0.15 0.93-0.31 1.4-0.45c0.65-0.2 1.3-0.38 1.95-0.56c0.38-0.11 0.77-0.23 1.15-0.33c1.04-0.28 2.08-0.54 3.13-0.79c7.39-1.73 14.98-2.5 22.55-2.38c27.05 0.44 53.99 12.31 71.74 32.82c14.9 17.23 22.83 40.07 22.78 62.8c-0.01 3.25-0.18 6.49-0.52 9.72c-0.9 8.61-2.98 17.07-6.29 25.09c13.56-9.11 30.85-5.77 45.62 1.22c14.76 6.99 25.35 22.1 26.89 38.35c3.22-1.79 6.75-3.13 10.46-4.05c11.11-2.77 23.74-1.74 34.03 2.3c1.39 0.55 2.75 1.18 4.08 1.85c0.16 0.08 0.32 0.15 0.48 0.24c1.27 0.66 2.5 1.38 3.71 2.14c0.2 0.12 0.39 0.25 0.58 0.37c1.2 0.78 2.36 1.61 3.49 2.49c0.13 0.11 0.26 0.21 0.39 0.32c2.33 1.87 4.5 3.93 6.48 6.17c0.12 0.14 0.25 0.27 0.37 0.41c0.94 1.09 1.82 2.21 2.67 3.37c0.13 0.17 0.25 0.35 0.38 0.53c0.84 1.18 1.63 2.39 2.36 3.64c0.07 0.12 0.14 0.25 0.21 0.37c0.75 1.3 1.45 2.63 2.09 4c0 0.01 0 0.01 0.01 0.02c0.79 1.71 1.48 3.47 2.07 5.27c11.64 7.8 15.83 26.61 9.84 39.42z" />
		<path id="&lt;Path&gt;" class="s2" d="m531.22 883.09c0.98 8.89-56.28 21.69-113.49 12.22c-65.12 17.16-261.62 12.28-292.21 3.38c-36.54 10.85-127.34 6.85-151.03-5c-22.7-1-14.8-7.91-5.93-10.86c5.28-6.58 11.53-9.28 18.76-8.11c-3.17-5.53 0.29-13.41 6.14-18.9c6.89-6.47 17.07-9.61 23.48-1.59c4.94-24.67 22.72-47.36 61.22-49.33c-0.43-0.58-0.81-1.16-1.16-1.74c-0.13-0.23-0.23-0.46-0.36-0.69c-0.19-0.35-0.39-0.7-0.54-1.05c-0.11-0.25-0.19-0.5-0.29-0.75c-0.13-0.32-0.27-0.64-0.37-0.96c-0.08-0.26-0.13-0.51-0.2-0.76c-0.08-0.31-0.17-0.62-0.23-0.92c-0.05-0.26-0.07-0.51-0.1-0.76c-0.04-0.3-0.09-0.6-0.11-0.89c-0.02-0.25 0-0.49-0.01-0.74c0-0.29-0.02-0.58 0-0.87c0.02-0.24 0.05-0.47 0.08-0.7c0.03-0.29 0.05-0.57 0.1-0.85c0.04-0.23 0.1-0.45 0.16-0.67c0.06-0.28 0.12-0.56 0.2-0.83c0.06-0.21 0.15-0.42 0.22-0.63c0.1-0.27 0.18-0.54 0.29-0.8c0.09-0.21 0.2-0.4 0.29-0.6c0.12-0.25 0.24-0.51 0.37-0.75c0.11-0.2 0.24-0.38 0.35-0.57c0.15-0.24 0.29-0.48 0.45-0.71c0.13-0.18 0.28-0.36 0.41-0.54c0.17-0.22 0.33-0.44 0.51-0.65c0.15-0.17 0.31-0.34 0.47-0.5c0.18-0.2 0.37-0.4 0.56-0.59c0.17-0.16 0.35-0.31 0.53-0.47c0.2-0.18 0.39-0.36 0.6-0.52c0.19-0.15 0.39-0.29 0.58-0.43c0.21-0.15 0.41-0.31 0.62-0.45c0.21-0.14 0.42-0.26 0.64-0.39c0.21-0.13 0.42-0.26 0.64-0.37c0.23-0.12 0.46-0.23 0.69-0.34c0.21-0.1 0.42-0.21 0.63-0.3c0.25-0.1 0.5-0.19 0.74-0.28c0.21-0.08 0.42-0.16 0.63-0.22c0.26-0.08 0.52-0.14 0.78-0.21c0.21-0.05 0.41-0.11 0.62-0.15c0.27-0.06 0.54-0.09 0.81-0.13c0.2-0.03 0.4-0.06 0.6-0.08c0.28-0.03 0.56-0.03 0.84-0.04c0.19-0.01 0.38-0.02 0.58-0.02c0.28 0 0.57 0.03 0.85 0.05c0.19 0.02 0.38 0.02 0.56 0.05c0.29 0.04 0.57 0.09 0.85 0.15c0.18 0.04 0.36 0.07 0.54 0.11c0.28 0.07 0.55 0.17 0.83 0.26c0.17 0.06 0.35 0.11 0.51 0.18c0.27 0.11 0.54 0.24 0.81 0.38c0.16 0.08 0.33 0.16 0.49 0.25c0.27 0.15 0.52 0.32 0.77 0.5c0.15 0.11 0.31 0.21 0.46 0.32c0.25 0.19 0.49 0.4 0.72 0.62c0.14 0.13 0.29 0.26 0.43 0.4c0.23 0.23 0.45 0.49 0.67 0.74c0.13 0.16 0.27 0.31 0.4 0.48c0.21 0.27 0.4 0.57 0.6 0.87c0.12 0.19 0.25 0.37 0.36 0.57c0.18 0.31 0.35 0.65 0.52 0.99c0.11 0.22 0.22 0.44 0.32 0.67c0.16 0.36 0.3 0.74 0.44 1.12c0.09 0.25 0.19 0.51 0.27 0.77c0.13 0.4 0.24 0.82 0.35 1.25c0.05 0.2 0.11 0.37 0.16 0.57c-0.01 0-0.02 0-0.02 0c0.06 0.26 0.14 0.5 0.19 0.77c3.69-38.59 17.97-65.31 36.86-81.63c0 0 0-0.01 0-0.01c0.07-0.06 0.15-0.12 0.22-0.18c1.01-0.87 2.04-1.69 3.07-2.5c0.24-0.19 0.47-0.39 0.71-0.57c3.91-2.99 8-5.56 12.2-7.73c0.1-0.05 0.19-0.09 0.29-0.14c1.28-0.65 2.57-1.28 3.88-1.85c0.31-0.14 0.63-0.26 0.95-0.4c1.09-0.47 2.19-0.93 3.3-1.34c0.41-0.16 0.82-0.29 1.24-0.44c1.02-0.37 2.03-0.72 3.06-1.04c0.47-0.15 0.94-0.28 1.41-0.42c0.98-0.29 1.96-0.57 2.95-0.82c0.5-0.13 1-0.24 1.51-0.36c0.96-0.22 1.92-0.44 2.88-0.63c0.52-0.1 1.05-0.2 1.58-0.29c0.95-0.17 1.89-0.32 2.84-0.45c0.54-0.07 1.08-0.14 1.62-0.21c0.94-0.11 1.89-0.21 2.83-0.29c0.54-0.04 1.08-0.09 1.63-0.12c0.95-0.06 1.89-0.1 2.84-0.13c0.54-0.01 1.07-0.03 1.61-0.04c0.96-0.01 1.91 0.01 2.86 0.03c0.53 0.01 1.05 0.02 1.58 0.05c0.97 0.04 1.95 0.12 2.92 0.2c0.5 0.04 1 0.07 1.5 0.12c1.02 0.1 2.04 0.23 3.05 0.37c0.44 0.06 0.89 0.11 1.33 0.18c1.13 0.17 2.26 0.38 3.38 0.6c0.32 0.06 0.65 0.11 0.97 0.18c2.91 0.61 5.79 1.37 8.63 2.28c0.21 0.07 0.41 0.15 0.63 0.22c1.18 0.39 2.37 0.81 3.54 1.25c0.42 0.16 0.83 0.34 1.24 0.51c0.95 0.38 1.9 0.77 2.83 1.18c0.49 0.22 0.97 0.46 1.46 0.69c0.85 0.4 1.7 0.8 2.53 1.22c0.52 0.27 1.03 0.55 1.54 0.82c0.79 0.43 1.58 0.85 2.36 1.3c0.53 0.3 1.04 0.63 1.56 0.94c0.75 0.46 1.49 0.92 2.23 1.4c0.52 0.34 1.04 0.7 1.56 1.05c0.71 0.49 1.42 0.99 2.11 1.5c0.52 0.38 1.02 0.76 1.53 1.15c0.68 0.53 1.36 1.07 2.03 1.62c0.49 0.41 0.98 0.82 1.47 1.24c0.66 0.57 1.3 1.15 1.95 1.74c0.47 0.44 0.94 0.87 1.4 1.32c0.63 0.61 1.25 1.24 1.87 1.88c0.44 0.46 0.89 0.91 1.32 1.38c0.62 0.66 1.21 1.35 1.81 2.04c0.41 0.47 0.82 0.94 1.22 1.42c0.6 0.73 1.18 1.48 1.76 2.23c0.37 0.47 0.74 0.94 1.1 1.43c0.6 0.82 1.18 1.67 1.76 2.52c0.3 0.45 0.62 0.88 0.92 1.34c0.66 1.02 1.29 2.06 1.91 3.12c0.18 0.31 0.38 0.61 0.56 0.92c0.8 1.39 1.56 2.82 2.29 4.27c0 0.01 0.01 0.02 0.01 0.02h0c9.72 19.48 12.96 44.68 5.6 74.59c41.48-46.48 112.54-22.58 102.76 37.33c2.16-0.61 4.32-1.15 6.46-1.63c0.75-0.17 1.49-0.29 2.24-0.45c1.39-0.29 2.78-0.58 4.16-0.81c0.88-0.15 1.75-0.26 2.63-0.39c1.24-0.18 2.48-0.38 3.71-0.52c0.92-0.11 1.83-0.18 2.75-0.27c1.17-0.11 2.34-0.23 3.5-0.31c0.94-0.06 1.86-0.1 2.79-0.14c1.13-0.05 2.26-0.11 3.38-0.13c0.93-0.02 1.85-0.01 2.78-0.01c1.1 0 2.19 0 3.28 0.03c0.92 0.02 1.83 0.07 2.75 0.11c1.07 0.05 2.15 0.1 3.21 0.18c0.9 0.06 1.79 0.14 2.69 0.22c1.05 0.09 2.1 0.19 3.14 0.31c0.88 0.1 1.75 0.2 2.62 0.32c1.04 0.13 2.06 0.28 3.09 0.43c0.85 0.13 1.69 0.26 2.54 0.41c1.02 0.17 2.03 0.36 3.03 0.55c0.82 0.16 1.63 0.32 2.44 0.48c1 0.21 2 0.43 2.98 0.65c0.78 0.18 1.56 0.36 2.33 0.54c0.99 0.24 1.97 0.5 2.94 0.76c0.74 0.2 1.48 0.39 2.21 0.59c0.98 0.28 1.94 0.56 2.9 0.85c0.7 0.21 1.39 0.41 2.07 0.63c0.97 0.3 1.91 0.62 2.86 0.93c0.64 0.21 1.3 0.43 1.93 0.65c0.96 0.33 1.89 0.68 2.83 1.02c0.59 0.21 1.19 0.43 1.77 0.64c0.96 0.36 1.88 0.73 2.81 1.1c0.45 0.18 0.93 0.36 1.38 0.54c-0.01 0-0.01 0-0.02 0c13.96 5.69 25.32 11.87 34.09 18.52c0.13 0 0.31 0 0.55 0c4.08-0.06 29.13 0 30.04 8.15z" />
		<path id="&lt;Path&gt;" class="s2" d="m72 1159.68c0.05 2.59-0.59 4.61-1.54 6.92c-2.47 6.04-6.86 10.71-11.14 13.85c-77.37 56.76-168.53 5.62-248.12 47.9c-22.93 12.18-43.46 31.9-65.21 47.89c-37.91 27.88-79.39 44.33-120.98 57.69c-13.29 4.27-26.88 8.27-40.44 6.45c-4.17-0.56-8.3-1.67-12.48-1.84c-5.4-0.22-10.76 1.13-16.07 2.48c-31.46 7.97-60.65 16.02-92.68 10.59c-12.35-2.09-24.76-3.92-36.92-7.14c-2.25-0.42-4.5-0.86-6.76-1.25c-3.22-0.55-22.14-9.15-33.45-17.04c-4.72-3.01-9.72-6.78-8.51-8.81c0.01-0.02 0.03-0.02 0.04-0.04c-0.05-0.31-0.06-0.61-0.01-0.89c1.09-5.87 6.18-7.34 10.55-7.51c0 0 0.01 0 0.01 0c0.31-0.01 0.61-0.02 0.91-0.02c7.49 0.01 14.98 0.02 22.48 0.03c1.12 0 2.33-0.03 3.24-0.96c1.11-1.13 1.47-3.2 1.83-5.08c4.06-20.98 35.43-55.01 46.37-24.23c5.51-29.76 24.8-53.21 46.2-56.19c21.41-2.98 43.48 14.72 52.9 42.4c0.08-0.51 0.17-1 0.25-1.51c0 0-0.01 0.01-0.02 0.02c0.12-0.75 0.26-1.48 0.39-2.22c0.35-2.1 0.7-4.19 1.09-6.27c0.16-0.84 0.35-1.67 0.52-2.51c0.43-2.1 0.85-4.2 1.33-6.28c0.19-0.81 0.4-1.61 0.59-2.42c0.5-2.08 1.01-4.16 1.56-6.21c0.21-0.8 0.45-1.57 0.68-2.37c0.57-2.05 1.15-4.09 1.77-6.1c0.24-0.78 0.51-1.55 0.76-2.32c0.64-2 1.29-3.99 1.98-5.96c0.27-0.78 0.57-1.53 0.85-2.3c0.71-1.94 1.41-3.88 2.16-5.78c0.31-0.79 0.65-1.55 0.96-2.33c0.76-1.86 1.51-3.71 2.32-5.53c0.35-0.8 0.73-1.58 1.09-2.37c0.8-1.77 1.6-3.54 2.45-5.26c0.4-0.82 0.83-1.61 1.24-2.42c0.84-1.67 1.68-3.34 2.56-4.96c0.46-0.84 0.94-1.65 1.4-2.49c0.87-1.55 1.73-3.11 2.63-4.63c0.52-0.87 1.07-1.71 1.6-2.57c0.88-1.43 1.76-2.87 2.67-4.26c0.6-0.91 1.23-1.78 1.83-2.67c0.88-1.29 1.75-2.6 2.66-3.85c0.69-0.96 1.42-1.87 2.13-2.81c0.86-1.14 1.71-2.29 2.59-3.39c0.81-1.02 1.66-1.98 2.49-2.96c0.81-0.97 1.61-1.96 2.44-2.9c1-1.13 2.03-2.19 3.05-3.27c0.7-0.74 1.38-1.51 2.08-2.23c1.74-1.77 3.52-3.48 5.32-5.13c29.06-26.45 65.63-35.39 99.18-24.27c21.25 7.05 43.18 25.24 48.66 55.46c1.06-1.24 2.14-2.45 3.23-3.63c0.36-0.39 0.73-0.78 1.1-1.16c0.73-0.78 1.47-1.55 2.21-2.3c0.45-0.45 0.9-0.9 1.35-1.34c0.67-0.66 1.35-1.32 2.03-1.96c0.5-0.47 0.99-0.93 1.49-1.38c0.65-0.59 1.3-1.18 1.96-1.75c0.53-0.46 1.05-0.92 1.58-1.37c0.64-0.54 1.28-1.07 1.93-1.59c0.55-0.45 1.1-0.91 1.66-1.35c0.62-0.49 1.25-0.96 1.88-1.44c1.27-0.96 2.56-1.9 3.86-2.8c0.42-0.29 0.83-0.59 1.25-0.87c0.77-0.52 1.55-1.02 2.33-1.52c0.44-0.28 0.87-0.57 1.31-0.84c0.8-0.5 1.61-0.98 2.41-1.46c0.42-0.25 0.83-0.49 1.25-0.73c0.84-0.48 1.69-0.95 2.53-1.41c0.37-0.2 0.74-0.39 1.11-0.59c0.9-0.47 1.81-0.94 2.72-1.39c0.26-0.13 0.53-0.25 0.79-0.38c29.87-14.37 63.36-13.75 92.52 3.54c3.43 2.04 6.91 4.32 10.63 4.55c5.3 0.33 10.22-3.53 14.96-6.96c18.3-13.22 43.36-19.68 57.07 2.13c1.7 2.71 3.29 5.9 5.7 7.09c1.69 0.83 3.54 0.53 5.31 0.22c20.23-3.56 40.46-7.12 60.7-10.67c5.85-1.03 12.97-1.28 16.26 5.71c1.14 2.42 1.51 4.96 1.36 7.5z" />
		<g id="&lt;Group&gt;">
			<path id="&lt;Path&gt;" class="s13" d="m-1.47 993.83c-7.77 12.73-23.5 19.21-38.4 18.58c-9.11-0.38-17.68-2.32-25.46-7.09c-16.53 10.56-37.28 14.29-56.45 10.13c-19.17-4.16-35.17-16.22-45.83-32.69c-21.15 2.8-43.13-5.5-56.78-21.89c-14.74 21.12-38.19 35.94-63.59 40.21c-25.4 4.26-50.59-1.71-71.42-16.85c-8.28 7.62-20 11.35-31.16 9.9c-11.16-1.45-21.73-8.93-27.79-18.42c-22.26 18.77-53.07 26.96-81.71 21.73c-28.64-5.24-54.44-26.95-68.62-52.37c-19.1-8.56-34.79-24.46-43.11-43.67c-8.31-19.21-9.16-41.53-2.33-61.31c4.56-13.22 13.04-25.79 25.68-31.77c12.65-5.98 29.75-3.55 37.79 7.89c0.94-21.99 9.17-44.77 24.44-60.61c10.74-11.14 24.68-19.59 39.97-21.99c17.38-2.73 35.87 2.83 48.88 14.68c13 11.85 20.25 29.74 19.15 47.3c5.49-8.49 11.53-11.44 21.38-13.72c9.85-2.29 20.3-1.27 29.92 1.85c8.37 2.71 16.42 7.17 21.89 14.06c5.47 6.89 8 16.48 5.06 24.77c9.31-33.44 39.51-59.66 73.31-67.57c33.8-7.91 71.58 4.19 94.29 30.44c22.71 26.25 29.23 65.54 15.96 97.61c13.55-9.11 30.86-5.77 45.61 1.22c14.76 6.99 25.35 22.1 26.89 38.35c12.89-7.16 30.77-7.15 44.49-1.75c13.72 5.4 24.78 17.16 29.34 31.19c12.39 8.3 16.34 29.07 8.56 41.8z" />
			<path id="&lt;Path&gt;" class="s1" d="m-12.1 946.76c-5.47-2.82-11.1-5.3-16.95-7.28c-22.06-7.51-45.01-7.52-63.78 6.29c1.56-18.67-8.79-37.81-25.28-46.71c-16.48-8.9-36.06-9.69-50.81 1.85c7.88-17.78 12.6-37.25 11.3-56.65c-1.29-19.41-8.96-38.72-23.02-52.15c-25.63-24.47-67.73-24.53-99.31-8.45c-31.58 16.09-56.66 41.54-75.97 71.25c4.52-14.76 3.53-31.14-2.74-45.24c-5.33-11.97-14.43-22.2-25.62-29.02c5.89 0.15 11.78 1.23 17.39 3.05c8.37 2.71 16.42 7.17 21.89 14.06c5.08 6.39 7.62 15.12 5.6 22.96c9.88-32.57 39.59-58 72.77-65.76c33.8-7.91 71.58 4.19 94.29 30.44c22.71 26.25 29.23 65.54 15.96 97.62c13.55-9.11 30.86-5.77 45.61 1.22c14.76 6.99 25.35 22.1 26.89 38.35c12.89-7.16 30.77-7.15 44.49-1.75c11.96 4.7 21.9 14.25 27.27 25.91z" />
			<path id="&lt;Path&gt;" class="s1" d="m-421.31 772.9c-12.23-15.44-33.63-23.3-53.46-20.71c-23.28 3.05-43.73 18.6-56.42 38.35c-12.69 19.75-18 40.18-19.94 63.58c-6.15-17.01-24.51-28.73-42.54-27.16c-6.24 0.55-12.24 2.7-17.55 5.99c4.9-10.45 12.45-19.74 22.79-24.63c12.65-5.98 29.75-3.55 37.8 7.89c0.94-21.99 9.17-44.77 24.44-60.61c10.74-11.14 24.68-19.59 39.97-21.99c17.38-2.73 35.87 2.83 48.88 14.68c7.32 6.67 12.82 15.26 16.03 24.63z" />
			<g id="&lt;Group&gt;" style="mix-blend-mode: multiply">
				<path id="&lt;Path&gt;" class="s14" d="m-418.33 975.7c-22.26 18.77-53.07 26.96-81.71 21.73c-28.64-5.24-54.44-26.95-68.62-52.37c-19.1-8.56-34.79-24.46-43.11-43.67c-7.37-17.02-8.86-36.48-4.36-54.46c5.5 27.55 22.78 71.14 77.03 57.47c47.1 12.03 76.05 3.98 86.86-24.16c11.85-30.85 4.25-52.71-0.69-62.24c7.52 10.85 28.21 33.64 64.62 23.71c-24.88 59.74-18.05 95.83 20.49 108.27c37.72 13.25 74.22 2.75 109.49-31.5c8.77 26.71 35.78 37.11 81.05 31.2c24.06 48.12 60.86 54.24 110.41 18.35c16.27 31.56 38.5 39.37 66.68 23.43c-0.39 0.82-0.81 1.62-1.28 2.39c-7.77 12.73-23.5 19.21-38.4 18.58c-9.11-0.38-17.68-2.32-25.46-7.09c-16.53 10.56-37.28 14.29-56.45 10.13c-19.17-4.16-35.17-16.22-45.83-32.69c-21.15 2.8-43.13-5.5-56.78-21.89c-14.74 21.12-38.19 35.94-63.59 40.21c-25.4 4.26-50.59-1.71-71.42-16.85c-8.28 7.62-20 11.35-31.16 9.9c-11.16-1.45-21.73-8.93-27.79-18.42z" />
				<path id="&lt;Path&gt;" class="s15" d="m-452.93 817.99c-1.21-2.34-2.31-4.12-3.28-5.35c0.72 1.44 1.81 3.22 3.28 5.35z" />
			</g>
		</g>
		<g id="&lt;Group&gt;">
			<path id="&lt;Path&gt;" class="s16" d="m34.77 1137.23c5.85-1.03 12.97-1.28 16.26 5.71c4.81 10.24-3.65 22.63-11.32 28.26c-77.37 56.76-168.53 5.62-248.12 47.9c-22.93 12.18-43.46 31.9-65.21 47.89c-37.91 27.88-79.39 44.33-120.98 57.69c-13.29 4.27-26.88 8.27-40.44 6.45c-4.17-0.56-8.3-1.67-12.48-1.84c-5.4-0.22-10.76 1.13-16.07 2.48c-31.46 7.97-60.65 16.02-92.68 10.59c-14.64-2.48-29.15-5.91-43.68-8.39c-4.73-0.81-43.38-18.99-41.93-26.78c1.17-6.28 6.93-7.53 11.47-7.52c7.49 0.01 14.98 0.02 22.48 0.03c1.12 0 2.33-0.03 3.24-0.96c1.11-1.13 1.47-3.21 1.83-5.08c4.06-20.98 35.43-55.01 46.37-24.23c5.51-29.76 24.8-53.21 46.2-56.19c21.41-2.98 43.48 14.72 52.9 42.4c7.2-48.21 28.38-91.81 57.44-118.26c29.06-26.45 65.63-35.39 99.18-24.27c21.25 7.05 43.18 25.24 48.66 55.46c36.35-42.36 89.22-53.42 132.51-27.73c3.43 2.04 6.91 4.32 10.63 4.55c5.3 0.33 10.22-3.53 14.96-6.96c18.3-13.22 43.36-19.68 57.07 2.13c1.7 2.71 3.29 5.9 5.7 7.09c1.69 0.83 3.54 0.53 5.31 0.22c20.23-3.56 40.46-7.12 60.7-10.67z" />
			<path id="&lt;Path&gt;" class="s17" d="m-282.89 1197.51c3.03 6.62 0.92 15.38-1.25 22.65c5.67 2.67 11.84-0.05 17.43-3.03c18.3-9.76 35.74-22.51 53.92-32.68c8.79-4.91 17.75-9.27 26.96-12.25c6.82-2.2 16.8-6.88 23.66-4.35c5.05 1.86 9.57 8.88 8.51 16.18c33.66-11.95 68.91-7.42 103.59-7.09c17.85 0.17 35.83-0.96 53.39-5.88c8.91-2.49 17.7-5.97 26.13-10.81c5.9-3.39 18.12-7.94 20.48-17.39c0.03-0.12 2.29 5.37 2.4 6.34c0.36 3.26-0.4 5.5-1.5 8.17c-2.47 6.04-6.86 10.71-11.14 13.85c-77.37 56.76-168.53 5.62-248.12 47.9c-22.93 12.18-43.46 31.9-65.21 47.89c-37.91 27.88-79.39 44.33-120.98 57.69c-13.29 4.27-26.88 8.27-40.44 6.45c-4.17-0.56-8.3-1.67-12.48-1.84c-5.4-0.22-10.76 1.13-16.07 2.48c-31.46 7.97-60.65 16.02-92.68 10.59c-23.77-4.03-47.73-7-69.77-21.05c-1.6-1.02-17.95-9.68-15.86-13.19c0.58-0.97 1.65-0.74 2.52-0.43c18.04 6.51 36.46 8.92 54.94 7.9c-2.51-1.79-0.25-7.35 2.3-9c14.51-9.4 32.26 8.67 47.01 0.04c-1.82-0.4-3.72-0.86-5.18-2.46c-1.46-1.61-2.28-4.75-1.27-6.95c0.44-0.95 1.13-1.59 1.81-2.17c10.82-9.35 23.76-13.56 36.34-11.84c12.57 1.71 24.58 9.12 37.19 9.8c22.24 1.2 42.24-18.4 59.3-38.86c30.71-36.83 70.01-71.9 112-64.51c4.54 0.8 9.56 2.41 12.06 7.88z" />
			<path id="&lt;Path&gt;" class="s1" d="m-198.14 1131.77c-22.71 13.2-41.2 30.12-55.48 50.75c-58.47-113.47-203.09 71.08-203.54 71.65c7.41-47.62 28.44-90.6 57.2-116.77c29.06-26.45 65.63-35.39 99.18-24.27c21.25 7.05 43.18 25.24 48.66 55.46c15.63-18.21 34.31-30.62 53.97-36.82z" />
			<path id="&lt;Path&gt;" class="s1" d="m-457.39 1255.65c-45.9-15.76-74.18-7.75-84.84 24.03c-23.46-8.96-38.18-7.89-44.16 3.2c-8.26 15.34-22.24 35.59-44.94 16.81c0.31-0.01 0.62-0.02 0.92-0.02c7.49 0.01 14.98 0.02 22.48 0.03c1.12 0 2.33-0.03 3.24-0.96c1.11-1.13 1.47-3.21 1.83-5.08c4.06-20.98 35.43-55.01 46.37-24.23c5.51-29.76 24.8-53.21 46.2-56.19c21.41-2.98 43.48 14.72 52.9 42.4z" />
		</g>
		<g id="&lt;Group&gt;">
			<path id="&lt;Path&gt;" class="s18" d="m108.98 596.29c-27.69 2.03-56.02-6.37-78.13-23.16c-22.11-16.79-37.8-41.82-43.28-69.04c-2.6-12.94-2.73-27.24 4.38-38.36c8.66-13.54 26.28-19.07 42.29-17.69c16.01 1.38 30.89 8.46 45.36 15.43c1.57-23.16 6.25-41.24 21.79-58.48c15.54-17.24 39.25-27.73 62.24-24.52c22.98 3.21 43.9 21.53 47.3 44.49c7.92-25.31 41.07-39.22 67.19-34.62c26.12 4.6 46.76 30.36 45.55 56.85c22.23-13.48 52.3-7.83 68.01 12.9c15.71 20.73 12.93 53.18-6.06 70.94c10.22 2.4 15.21 21.58 12.42 31.71c-2.79 10.12-10.91 17.8-19.12 24.34c-39.23 31.23-89.14 48.76-139.28 48.94c-50.14 0.17-91.23-8.77-130.68-39.72z" />
			<path id="&lt;Path&gt;" class="s1" d="m91.83 506.39c-13.23-0.12-26.4 3.79-36.34 12.52c3.77-15.72 20.63-26.51 36.74-25.18c16.11 1.34 30.29 13.44 36.08 28.54c-9.79-8.9-23.25-15.77-36.48-15.88z" />
			<path id="&lt;Path&gt;" class="s1" d="m289.98 502.76c-10.4-8.18-23.21-13.14-36.42-12.31c12.6-10.14 32.53-8.38 44.47 2.54c11.93 10.91 15.76 29.15 11.11 44.64c-2.3-13.02-8.76-26.69-19.16-34.87z" />
			<path id="&lt;Path&gt;" class="s1" d="m111.8 414.37c-19.62 25.86-22.2 57.44-18.28 89.67c-6.96-20.62-26.84-34.82-47.86-40.44c-16.11-4.31-32.92-4.33-49.63-3c9.42-9.79 24.41-13.75 38.21-12.56c16.01 1.38 30.89 8.46 45.36 15.43c1.57-23.16 6.25-41.24 21.79-58.48c15.54-17.24 39.25-27.73 62.24-24.52c1.84 0.26 3.66 0.65 5.47 1.09c-22.12 2.26-43.66 14.82-57.31 32.81z" />
			<g id="&lt;Group&gt;">
				<path id="&lt;Path&gt;" class="s1" d="m394.3 538.6c0 0.01-0.01 0.01-0.02 0.01c0 0 0.01-0.01 0.01-0.02c0 0 0 0.01 0 0.01z" />
				<path id="&lt;Path&gt;" class="s1" d="m385.59 482.52c-14.2-14.51-36.46-19.71-56.26-15.26c-19.8 4.45-35.36 16.06-46.86 32.79c3.04-16.62 5.51-33.61 3.37-50.37c-2.14-16.76-9.4-33.48-22.74-43.85c-7.25-5.64-16.45-8.95-25.59-9.29c12.58-6.14 27.49-8.51 40.63-6.2c26.12 4.6 46.76 30.36 45.55 56.85c22.23-13.48 52.3-7.82 68.01 12.9c10.52 13.89 12.71 33.03 7.32 49.5c-1.62-10.07-6.29-19.76-13.43-27.06z" />
			</g>
			<path id="&lt;Path&gt;" class="s19" d="m385.64 531.02c10.22 2.4 15.21 21.58 12.42 31.71c-2.79 10.12-10.91 17.8-19.12 24.34c-39.23 31.23-89.14 48.76-139.28 48.94c-50.14 0.17-91.23-8.77-130.68-39.72c-27.69 2.03-56.02-6.37-78.13-23.16c-22.11-16.79-37.8-41.82-43.28-69.04c-0.43-2.15-0.79-4.34-1.06-6.55c19.91 29.21 57.31 62.48 119.57 45.17c7.34 53.83 68.3 68.1 182.89 42.82c65.66 12.64 93.59-5.51 83.8-54.44c16.32-18.28 24.48-38.78 24.49-61.51c9 20.18 4.65 46.21-11.64 61.45z" />
		</g>
		<g id="&lt;Group&gt;">
			<path id="&lt;Path&gt;" class="s20" d="m520.32 864.61c0.98 8.89-56.28 21.69-113.48 12.22c-65.12 17.16-261.62 12.28-292.21 3.38c-36.54 10.85-127.35 6.85-151.03-5c-22.7-1-14.8-7.91-5.93-10.86c5.28-6.58 11.53-9.28 18.76-8.11c-3.17-5.53 0.29-13.41 6.14-18.9c6.89-6.47 17.07-9.61 23.48-1.59c4.94-24.67 22.72-47.36 61.22-49.33c-13.82-18.76 18.78-36.5 23.7-11.83c14.94-156.3 203.47-118.17 169.77 18.76c41.48-46.48 112.54-22.58 102.76 37.33c44.84-12.68 86.92-4.08 126.22 25.79c0.13 0 0.32 0 0.55 0c4.07-0.06 29.13 0 30.04 8.15z" />
			<path id="&lt;Path&gt;" class="s21" d="m520.32 864.61c0.98 8.89-56.28 21.69-113.48 12.22c-65.12 17.16-261.62 12.28-292.21 3.38c-36.54 10.85-127.35 6.85-151.03-5c-22.7-1-14.8-7.91-5.93-10.86c5.28-6.58 11.53-9.28 18.76-8.11c-3.17-5.53 0.29-13.41 6.14-18.9c8.09 3.47 14.37 11.42 14.92 20.28c8.9-1.22 18.29 1.79 24.82 7.97c0.87-11.44 4.73-23.29 13.48-30.69c8.76-7.4 23.21-8.68 31.34-0.59c-3.94-15.88 9.05-33.72 25.39-34.82c-1.63-19.78 12.89-39.29 32.01-44.68c19.1-5.38 40.91 2.93 52.72 18.88c11.83 15.95 13.68 38.31 5.98 56.6c7.71-1.06 15.83 4.17 17.99 11.65c9.63-1.63 19.88 5.57 21.59 15.18c13.9-19.12 42.5-25.69 63.35-14.57c6.24 3.32 11.67 7.95 17.81 11.42c25.1 14.15 56.18 7.01 85 8.03c30.18 1.08 61.61 11.44 89.72 0.37c4.05-1.59 7.89-3.6 11.56-5.9c4.07-0.06 29.13 0 30.04 8.15z" />
			<path id="&lt;Path&gt;" class="s1" d="m255.15 718.76c-24.73 9.92-49.43 16.63-70.29 16.19c-35.15-0.75-50.54-20.98-57.02-42.01c40.92-35.35 103.52-21.88 127.31 25.82z" />
			<path id="&lt;Path&gt;" class="s1" d="m340.45 852.12c4.88-19.35 1.22-36.79-10.98-52.31c-12.21-15.52-35.11-17.67-68.71-6.46c41.48-46.48 112.54-22.58 102.76 37.33c35.52-10.05 68.72-2.29 92.16 7.27c-40.63-4.7-79.04 0.03-115.22 14.17z" />
			<path id="&lt;Path&gt;" class="s1" d="m6.06 835.75c4.94-24.67 22.72-47.36 61.22-49.33c-13.67-18.56 18.09-36.11 23.53-12.6c-0.02 0-23.41 1.41-16.96 22.5c-23.9-6.24-46.5 6.9-67.79 39.43z" />
		</g>
	</g>
</svg>