<svg xmlns="http://www.w3.org/2000/svg" viewBox="0 0 64 64"><path fill="#fbb03b" d="M34.71,42.61a8.4,8.4,0,0,1-3.06,1.93,11.523,11.523,0,0,1-3.31,8.67c-4.68,4.69-12.6,4.37-17.67-.7-.24-.24-.46-.48-.68-.73A12.847,12.847,0,0,1,7.73,38.01l1.2-2a10.36,10.36,0,0,1,1.03-1.18,11.531,11.531,0,0,1,8.68-3.31,8.243,8.243,0,0,1,1.92-3.06,9.174,9.174,0,0,1,11.03-1.12l4.2,4.2.04.04A9.174,9.174,0,0,1,34.71,42.61Z"/><path fill="#f49b25" d="M9.99,51.78c.22.25.44.49.68.73l-.71-.71Z"/><path fill="#f49b25" d="M37.54,45.44a8.243,8.243,0,0,1-3.06,1.92,11.531,11.531,0,0,1-3.31,8.68c-4.68,4.69-12.6,4.37-17.68-.71l-2.82-2.82c5.07,5.07,12.99,5.39,17.67.7a11.523,11.523,0,0,0,3.31-8.67,8.4,8.4,0,0,0,3.06-1.93,8.927,8.927,0,0,0,1.82-9.5,10.482,10.482,0,0,0-.7-1.53l.29-.29.71.71a10.894,10.894,0,0,1,1.28,1.54C40.75,37.36,40.62,42.36,37.54,45.44Z"/><polygon fill="#f49b25" points="36.12 31.29 35.83 31.58 35.79 31.54 36.12 31.29"/><path fill="#ffc67b" d="M48.14,19.27,27.64,39.78l-.01-.01a4.879,4.879,0,0,0-1.41-2.82,5.059,5.059,0,0,0-2.83-1.41L43.9,15.03Z"/><path fill="#f49b25" d="M26.22,44.02a5,5,0,0,1-7.07,0A4.877,4.877,0,0,1,18,42.19a4.981,4.981,0,0,1,5.39-6.65,4.79,4.79,0,0,1,.99.25,5.07,5.07,0,0,1,1.84,1.16,4.879,4.879,0,0,1,1.41,2.82A4.972,4.972,0,0,1,26.22,44.02Z"/><path fill="#fbb03b" d="M56.99,13.25l-6.02,6.02a2,2,0,0,1-2.83,0l-.01-.01L43.9,15.03a2,2,0,0,1,0-2.83l6.02-6.02a1.485,1.485,0,0,1,2.1,0l4.77,4.77.2.2A1.485,1.485,0,0,1,56.99,13.25Z"/><polygon fill="#f49b25" points="56.8 10.95 56.99 11.15 56.79 10.95 56.8 10.95"/><path fill="#f49b25" d="M58.9,15.58l-5.81,5.81a2,2,0,0,1-2.83,0l-2.12-2.12a2,2,0,0,0,2.83,0l6.02-6.02a1.485,1.485,0,0,0,0-2.1l2.12,2.12A1.65,1.65,0,0,1,58.9,15.58Z"/><path fill="#b3b3b3" d="M48.142 8.958a1 1 0 0 1-.707-.292L46.021 7.251a1 1 0 0 1 1.414-1.414l1.414 1.414a1 1 0 0 1-.707 1.707zM56.627 17.444a1 1 0 0 1-.707-.293l-1.414-1.415a1 1 0 0 1 1.414-1.414l1.414 1.415a1 1 0 0 1-.707 1.707zM45.313 11.787a1 1 0 0 1-.707-.293L43.192 10.08a1 1 0 0 1 1.414-1.414l1.415 1.414a1 1 0 0 1-.708 1.707zM53.8 20.272a1 1 0 0 1-.707-.293l-1.414-1.414a1 1 0 0 1 1.414-1.414l1.414 1.414a1 1 0 0 1-.707 1.707z"/><rect width="2" height="2" x="49.264" y="9.08" fill="#b3b3b3" transform="rotate(-45 50.264 10.079)"/><rect width="2" height="2" x="46.435" y="11.908" fill="#b3b3b3" transform="rotate(-45 47.435 12.908)"/><rect width="2" height="2" x="52.092" y="11.908" fill="#b3b3b3" transform="rotate(-45 53.092 12.908)"/><rect width="2" height="2" x="49.264" y="14.737" fill="#b3b3b3" transform="rotate(-44.99 50.264 15.737)"/><path fill="#fcb968" d="M50.26,21.39l-3.25,3.26-1.38,1.37-7.52,7.52A10.894,10.894,0,0,0,36.83,32l-.71-.71L48.14,19.27Z"/><path fill="#f79e46" d="M19.873,53.316a10.138,10.138,0,0,1-1.925-.185,1,1,0,0,1,.381-1.964,7.974,7.974,0,0,0,5.839-1.111,1,1,0,1,1,1.08,1.683A9.934,9.934,0,0,1,19.873,53.316Z"/><ellipse cx="6" cy="23" fill="#33a4db" rx="3" ry="2"/><path fill="#33a4db" d="M6,26c-2.243,0-4-1.318-4-3s1.757-3,4-3,4,1.318,4,3S8.243,26,6,26Zm0-4c-1.221,0-2,.592-2,1s.779,1,2,1,2-.592,2-1S7.221,22,6,22Z"/><path fill="#33a4db" d="M9,24a1,1,0,0,1-1-1V13a1,1,0,0,1,.8-.98l10-2A1,1,0,0,1,20,11V21a1,1,0,0,1-2,0V12.22l-8,1.6V23A1,1,0,0,1,9,24Z"/><ellipse cx="16" cy="21" fill="#33a4db" rx="3" ry="2"/><path fill="#33a4db" d="M16,24c-2.243,0-4-1.318-4-3s1.757-3,4-3,4,1.318,4,3S18.243,24,16,24Zm0-4c-1.221,0-2,.592-2,1s.779,1,2,1,2-.592,2-1S17.221,20,16,20Z"/><ellipse cx="42" cy="57" fill="#f28d4e" rx="3" ry="2"/><path fill="#f19332" d="M42,60c-2.243,0-4-1.318-4-3s1.757-3,4-3,4,1.318,4,3S44.243,60,42,60Zm0-4c-1.221,0-2,.592-2,1s.779,1,2,1,2-.592,2-1S43.221,56,42,56Z"/><path fill="#f19332" d="M45,58a1,1,0,0,1-1-1V47a1,1,0,0,1,.8-.98l10-2A1,1,0,0,1,56,45V55a1,1,0,0,1-2,0V46.22l-8,1.6V57A1,1,0,0,1,45,58Z"/><ellipse cx="52" cy="55" fill="#f28d4e" rx="3" ry="2"/><path fill="#f19332" d="M52,58c-2.243,0-4-1.318-4-3s1.757-3,4-3,4,1.318,4,3S54.243,58,52,58Zm0-4c-1.221,0-2,.592-2,1s.779,1,2,1,2-.592,2-1S53.221,54,52,54Z"/><path fill="#00a197" d="M33,15a1,1,0,0,1-1-1V4a1,1,0,0,1,2,0V14A1,1,0,0,1,33,15Z"/><ellipse cx="30" cy="14" fill="#00a197" rx="3" ry="2"/><path fill="#00a197" d="M30,17c-2.243,0-4-1.318-4-3s1.757-3,4-3,4,1.318,4,3S32.243,17,30,17Zm0-4c-1.221,0-2,.592-2,1s.779,1,2,1,2-.592,2-1S31.221,13,30,13Z"/><path fill="#c1272d" d="M61,35a1,1,0,0,1-1-1V24a1,1,0,0,1,2,0V34A1,1,0,0,1,61,35Z"/><ellipse cx="58" cy="34" fill="#c1272d" rx="3" ry="2"/><path fill="#c1272d" d="M58,37c-2.243,0-4-1.318-4-3s1.757-3,4-3,4,1.318,4,3S60.243,37,58,37Zm0-4c-1.221,0-2,.592-2,1s.779,1,2,1,2-.592,2-1S59.221,33,58,33Z"/></svg>