<svg xmlns="http://www.w3.org/2000/svg" width="32" height="32" viewBox="0 0 32 32"><g transform="translate(0 -1020.362)"><ellipse cx="14.865" cy="1027.237" fill="#ee7581" stroke="#105286" stroke-dashoffset="3.2" stroke-miterlimit="2.948" color="#000" style="isolation:auto;mix-blend-mode:normal" overflow="visible" rx="3.377" ry="3.375"/><ellipse cx="5.434" cy="1035.856" fill="#406b95" stroke="#105286" stroke-dashoffset="3.2" stroke-miterlimit="2.948" color="#000" style="isolation:auto;mix-blend-mode:normal" overflow="visible" rx="2.018" ry="2.017"/><circle cx="12.295" cy="1046.748" r="1.614" fill="#ee7581" stroke="#105286" stroke-dashoffset="3.2" stroke-miterlimit="2.948" color="#000" style="isolation:auto;mix-blend-mode:normal" overflow="visible"/><path fill="none" stroke="#105286" stroke-miterlimit="2.948" d="M6.2409135 1034.2429l5.6507525-4.841M11.084409 1045.5387l-4.8434955-8.0685M7.048171 1036.3941l6.981389 1.1871M13.917498 1046.7641l5.08056-.304"/><ellipse cx="15.605" cy="1037.808" fill="#406b95" stroke="#105286" stroke-miterlimit="2.948" rx="1.801" ry="1.799"/><path fill="none" stroke="#105286" stroke-miterlimit="2.948" d="m 12.831549,1045.166 2.395898,-5.388"/><ellipse cx="-25.482" cy="1035.856" fill="#406b95" stroke="#105286" stroke-dashoffset="3.2" stroke-miterlimit="2.948" color="#000" style="isolation:auto;mix-blend-mode:normal" overflow="visible" rx="2.018" ry="2.017" transform="scale(-1 1)"/><circle cx="-20.886" cy="1046.748" r="1.614" fill="#ee7581" stroke="#105286" stroke-dashoffset="3.2" stroke-miterlimit="2.948" color="#000" style="isolation:auto;mix-blend-mode:normal" overflow="visible" transform="scale(-1 1)"/><path fill="none" stroke="#105286" stroke-miterlimit="2.948" d="M24.674619 1034.2429l-6.530828-5.5558M21.72516 1045.1599l3.454535-7.4056M23.867362 1036.3941l-6.981389 1.1871M19.599213 1045.9236l-2.774705-6.7454"/></g></svg>