<svg xmlns="http://www.w3.org/2000/svg" viewBox="0 0 64 64"><path fill="#e6e7e8" d="M58,11V57a4,4,0,0,1-4,4H18a4,4,0,0,1-4-4V7a4,4,0,0,1,4-4H50V9a2.006,2.006,0,0,0,2,2Z"/><path fill="#d8d7da" d="M58,24V57a4,4,0,0,1-4,4H21Z"/><path fill="#ff9811" d="M24.49 49.68A1.94 1.94 0 0 1 25 51a2 2 0 1 1-2-2A1.961 1.961 0 0 1 24.49 49.68zM34 43a1.987 1.987 0 0 1-2 2 1.961 1.961 0 0 1-1.49-.68A1.94 1.94 0 0 1 30 43a2 2 0 0 1 4 0zM44.03 47.29A2 2 0 1 1 41 49a1.987 1.987 0 0 1 2-2A1.9 1.9 0 0 1 44.03 47.29zM49 37a2 2 0 0 1 0 4 1.9 1.9 0 0 1-1.03-.29A2 2 0 0 1 49 37z"/><path fill="#bcbec0" d="M58,11H52a2.006,2.006,0,0,1-2-2V3Z"/><path fill="#d8d7da" d="M17,33.35v1.3a.977.977,0,0,0,.22.62L21,40a1,1,0,0,1,1,1v2a1,1,0,0,1-1,1H14V24h7a1,1,0,0,1,1,1v2a1,1,0,0,1-1,1l-3.78,4.73A.977.977,0,0,0,17,33.35Z"/><rect width="14" height="4" x="6" y="38" fill="#ee8700" rx="1"/><path fill="#ffb655" d="M19,26l-3.78,4.73a.977.977,0,0,0-.22.62v1.3a.977.977,0,0,0,.22.62L19,38H7l3.78-4.73a.977.977,0,0,0,.22-.62v-1.3a.977.977,0,0,0-.22-.62L7,26Z"/><rect width="14" height="4" x="6" y="22" fill="#ee8700" rx="1"/><path d="M58.707,10.293l-8-8A1,1,0,0,0,50,2H18a5.006,5.006,0,0,0-5,5V19h2V7a3,3,0,0,1,3-3H49V9a3,3,0,0,0,3,3h5V57a3,3,0,0,1-3,3H18a3,3,0,0,1-3-3V45H13V57a5.006,5.006,0,0,0,5,5H54a5.006,5.006,0,0,0,5-5V11A1,1,0,0,0,58.707,10.293ZM51,9V5.414L55.586,10H52A1,1,0,0,1,51,9Z"/><rect width="2" height="2" x="19" y="8"/><rect width="6" height="2" x="23" y="8"/><rect width="10" height="2" x="19" y="12"/><path d="M35,43a3,3,0,0,0-6,0,2.972,2.972,0,0,0,.224,1.126l-4.783,4.259A2.961,2.961,0,0,0,23,48a3,3,0,1,0,3,3,2.972,2.972,0,0,0-.224-1.126l4.783-4.259a2.925,2.925,0,0,0,3.433-.389l6.056,3.3A2.925,2.925,0,0,0,40,49a3,3,0,0,0,6,0,2.969,2.969,0,0,0-.694-1.9L48.4,41.939A2.964,2.964,0,0,0,49,42a3,3,0,1,0-3-3,2.969,2.969,0,0,0,.694,1.9L43.6,46.061a2.957,2.957,0,0,0-2.592.713l-6.056-3.3A2.925,2.925,0,0,0,35,43ZM23,52a1,1,0,1,1,1-1A1,1,0,0,1,23,52Zm9-8a1,1,0,1,1,1-1A1,1,0,0,1,32,44Zm17-6a1,1,0,1,1-1,1A1,1,0,0,1,49,38ZM43,48a1,1,0,1,1-1,1A1,1,0,0,1,43,48Z"/><rect width="12" height="2" x="41" y="20"/><rect width="16" height="2" x="23" y="20"/><rect width="12" height="2" x="41" y="24"/><rect width="16" height="2" x="23" y="24"/><rect width="12" height="2" x="41" y="28"/><rect width="16" height="2" x="23" y="28"/><rect width="12" height="2" x="41" y="32"/><rect width="16" height="2" x="23" y="32"/><path d="M19.549,26.914A2,2,0,0,0,21,25V23a2,2,0,0,0-2-2H7a2,2,0,0,0-2,2v2a2,2,0,0,0,1.451,1.914L10,31.351v1.3L6.451,37.086A2,2,0,0,0,5,39v2a2,2,0,0,0,2,2H19a2,2,0,0,0,2-2V39a2,2,0,0,0-1.451-1.914L16,32.649v-1.3ZM7,23H19v2H7ZM7,41V39H19v2Zm7.438-7.1L16.92,37H9.08l2.481-3.1A2,2,0,0,0,12,32.649v-1.3a2,2,0,0,0-.438-1.249L9.08,27h7.84l-2.481,3.1A2,2,0,0,0,14,31.351v1.3A2,2,0,0,0,14.438,33.9Z"/></svg>