<svg xmlns="http://www.w3.org/2000/svg" viewBox="0 0 64 64"><g data-name="Running Shoes"><polygon fill="#bddbff" points="37.01 42 14 33 37 42 37.01 42"/><path fill="#bcbec0" d="M37,42,14,33l-3.135,3.919a1,1,0,0,0,.434,1.562L37,47H60a1,1,0,0,0,1-1V43a1,1,0,0,0-1-1H37Z"/><path fill="#ffb655" d="M59,33H51.936l-5.1-4.835-3.08-2.92-3.081-2.919-5.393-5.112a1,1,0,0,0-1.664.509L32.445,23A2,2,0,0,1,30.008,24.5L21.719,22.43a2,2,0,0,1-1.5-2.189L21,14l-1.925-.642a1,1,0,0,0-1.3.753L14,33l23.01,9H59a2,2,0,0,0,2-2V35A2,2,0,0,0,59,33Z"/><path fill="#939598" d="M13.865,36.919l2.42-3.025L14,33l-3.135,3.919a1,1,0,0,0,.434,1.562L37,47h3L14.3,38.481A1,1,0,0,1,13.865,36.919Z"/><path fill="#ee8700" d="M33.008 24.5A2 2 0 0 0 35.445 23l1.033-4.647-1.2-1.135a1 1 0 0 0-1.664.509L32.445 23a1.979 1.979 0 0 1-.775 1.171zM20.778 14.111a1.015 1.015 0 0 1 .07-.162l-1.773-.591a1 1 0 0 0-1.3.753L14 33l23.01 9h3L17 33z"/><path d="M62 35a3 3 0 0 0-3-3H52.335l-4.067-3.854.439-.439a1 1 0 0 0-1.414-1.414l-.476.476-1.629-1.543.519-.519a1 1 0 0 0-1.414-1.414l-.557.557-1.628-1.544.6-.6a1 1 0 0 0-1.414-1.414l-.637.637-4.687-4.443a2 2 0 0 0-3.328 1.019h0l-1.172 5.271a.993.993 0 0 1-.45.634 1.006 1.006 0 0 1-.769.12L21.962 21.46a1 1 0 0 1-.75-1.1l.78-6.241a1 1 0 0 0-.676-1.073l-1.925-.641a2 2 0 0 0-2.593 1.5l-3.731 18.65-2.983 3.73a2 2 0 0 0 .9 3.137l25.7 8.518A1.017 1.017 0 0 0 37 48H60a2 2 0 0 0 2-2V43a1.983 1.983 0 0 0-.513-1.324A2.982 2.982 0 0 0 62 40zM18.758 14.308l1.148.381-.678 5.428a3 3 0 0 0 2.25 3.282l8.288 2.074a3 3 0 0 0 3.656-2.261l1.172-5.272h0l4.647 4.406-1.948 1.948a1 1 0 1 0 1.414 1.414l1.986-1.986 1.629 1.543-2.029 2.029a1 1 0 1 0 1.414 1.414l2.067-2.067L45.4 28.184l-2.109 2.109a1 1 0 1 0 1.414 1.414l2.147-2.147 4.4 4.166a1 1 0 0 0 .688.274H59a1 1 0 0 1 1 1v5a1 1 0 0 1-1 1H37.2L15.145 32.374zM60 46H37.161L11.646 37.544 14.321 34.2l22.315 8.732A1 1 0 0 0 37 43H60zM8 16h6a1 1 0 0 0 0-2H8a1 1 0 0 0 0 2zM3 16H4a1 1 0 0 0 0-2H3a1 1 0 0 0 0 2zM3 22H13a1 1 0 0 0 0-2H3a1 1 0 0 0 0 2zM21 46H3a1 1 0 0 0 0 2H21a1 1 0 0 0 0-2zM3 43H4a1 1 0 0 0 0-2H3a1 1 0 0 0 0 2zM7 43h6a1 1 0 0 0 0-2H7a1 1 0 0 0 0 2z"/></g></svg>